<svg version="1.0" xmlns="http://www.w3.org/2000/svg" width="40.000000pt"
     height="6.000000pt" viewBox="0 0 40.000000 6.000000"
     preserveAspectRatio="xMidYMid meet">
    <g transform="translate(0.000000,6.000000) scale(0.100000,-0.100000)"
       fill="#ffb162" stroke="none">
        <path d="M0 52 c0 -6 12 -20 27 -31 l26 -21 24 22 23 21 25 -23 25 -23 25 23
               25 23 25 -23 25 -23 25 23 25 23 23 -21 24 -22 27 21 c15 12 25 24 22 27 -3 3
               -15 -3 -25 -13 -19 -17 -21 -16 -47 4 l-27 21 -24 -22 -23 -21 -25 23 -25 23
               -25 -23 -25 -23 -23 21 -24 22 -27 -21 -27 -21 -25 23 c-13 12 -24 18 -24 11z"></path>
    </g>
</svg>