<svg aria-hidden="true" style="position: absolute; width: 0; height: 0; overflow: hidden;" version="1.1"
     xmlns="http://www.w3.org/2000/svg" xmlns:xlink="http://www.w3.org/1999/xlink">
    <defs>
        <symbol id="icon-css" viewBox="0 0 260 32">
            <path d="M26.81 0c-7.141 0-11.59 3.551-13.385 10.654 2.693-3.551 5.815-4.878 9.405-4.019 2.029 0.507 3.512 1.99 5.112 3.59 2.615 2.693 5.659 5.776 12.293 5.776 7.141 0 11.629-3.551 13.424-10.654-2.693 3.551-5.815 4.878-9.366 3.981-2.029-0.507-3.512-1.99-5.112-3.59-2.654-2.654-5.698-5.737-12.371-5.737v0zM13.424 16c-7.181 0-11.629 3.551-13.424 10.654 2.693-3.551 5.815-4.878 9.405-4.020 2.029 0.507 3.512 1.99 5.112 3.59 2.615 2.693 5.659 5.776 12.293 5.776 7.141 0 11.629-3.551 13.424-10.654-2.693 3.551-5.815 4.878-9.405 3.98-2.029-0.507-3.512-1.99-5.112-3.59-2.615-2.654-5.659-5.737-12.293-5.737v0z"></path>
            <path d="M80.468 13.463h-4.683v9.015c0 2.419 1.6 2.381 4.683 2.224v3.629c-6.283 0.741-8.781-0.976-8.781-5.854v-9.015h-3.473v-3.902h3.473v-5.034l4.098-1.21v6.244h4.683v3.902zM98.341 9.6h4.059v18.771h-4.059v-2.693c-1.444 1.99-3.668 3.2-6.595 3.2-5.151 0-9.405-4.332-9.405-9.873 0-5.581 4.254-9.873 9.405-9.873 2.927 0 5.19 1.21 6.595 3.161v-2.693zM92.371 24.976c3.395 0 5.971-2.537 5.971-6.010 0-3.512-2.576-6.010-5.971-6.010s-5.971 2.537-5.971 6.010c0 3.473 2.576 6.010 5.971 6.010v0zM109.19 6.751c-1.444 0-2.615-1.21-2.615-2.576 0-1.444 1.171-2.576 2.615-2.576s2.615 1.171 2.615 2.576c0 1.405-1.171 2.576-2.615 2.576v0zM107.161 28.332v-18.732h4.059v18.771h-4.059zM115.941 28.332v-27.395h4.059v27.395h-4.059zM146.498 9.6h4.293l-5.932 18.771h-3.981l-3.941-12.644-3.981 12.644h-4.019l-5.932-18.771h4.293l3.668 12.956 3.981-12.956h3.902l3.941 12.956 3.707-12.956zM155.863 6.751c-1.444 0-2.615-1.21-2.615-2.576 0-1.444 1.171-2.576 2.615-2.576s2.615 1.171 2.615 2.576c0 1.405-1.171 2.576-2.615 2.576v0zM153.834 28.332v-18.732h4.059v18.771h-4.059zM172.566 9.093c4.215 0 7.259 2.849 7.259 7.727v11.512h-4.059v-11.083c0-2.849-1.639-4.371-4.215-4.371-2.693 0-4.8 1.561-4.8 5.424v10.068h-4.098v-18.771h4.098v2.38c1.171-1.951 3.239-2.888 5.815-2.888v0zM199.141 2.068h4.098v26.263h-4.098v-2.693c-1.444 1.99-3.668 3.2-6.595 3.2-5.112 0-9.405-4.332-9.405-9.873 0-5.581 4.254-9.873 9.405-9.873 2.927 0 5.19 1.21 6.595 3.161v-10.185zM193.171 24.976c3.395 0 5.971-2.537 5.971-6.010 0-3.512-2.576-6.010-5.971-6.010s-5.971 2.537-5.971 6.010c0 3.473 2.576 6.010 5.971 6.010v0zM216.859 28.839c-5.698 0-9.99-4.332-9.99-9.873 0-5.581 4.254-9.873 9.99-9.873 3.707 0 6.907 1.912 8.429 4.839l-3.512 2.029c-0.82-1.756-2.693-2.888-4.956-2.888-3.317 0-5.854 2.498-5.854 5.893s2.537 5.893 5.854 5.893c2.263 0 4.098-1.171 5.034-2.888l3.512 1.99c-1.6 2.966-4.8 4.878-8.507 4.878v0zM232.078 14.751c0 3.434 10.146 1.366 10.146 8.312 0 3.746-3.278 5.776-7.376 5.776-3.785 0-6.478-1.678-7.688-4.41l3.512-2.029c0.585 1.678 2.107 2.693 4.176 2.693 1.795 0 3.2-0.585 3.2-2.107 0-3.356-10.146-1.444-10.146-8.195 0-3.512 3.044-5.737 6.907-5.737 3.083 0 5.659 1.444 6.985 3.902l-3.434 1.912c-0.663-1.483-1.99-2.146-3.551-2.146-1.444 0.039-2.732 0.702-2.732 2.029v0zM249.483 14.751c0 3.434 10.146 1.366 10.146 8.312 0 3.746-3.278 5.776-7.376 5.776-3.785 0-6.478-1.678-7.688-4.41l3.512-2.029c0.585 1.678 2.107 2.693 4.176 2.693 1.795 0 3.2-0.585 3.2-2.107 0-3.356-10.146-1.444-10.146-8.195 0-3.512 3.044-5.737 6.907-5.737 3.083 0 5.659 1.444 6.985 3.902l-3.434 1.912c-0.663-1.483-1.99-2.146-3.551-2.146-1.444 0.039-2.732 0.702-2.732 2.029v0z"></path>
        </symbol>
        <symbol id="icon-Elementor" viewBox="0 0 32 32">
            <path d="M16 0c-8.837 0-16 7.163-16 16 0 8.834 7.163 16 16 16s16-7.163 16-16c-0.003-8.837-7.166-16-16-16zM12.001 22.664h-2.665v-13.332h2.665v13.332zM22.664 22.664h-7.999v-2.665h7.999v2.665zM22.664 17.331h-7.999v-2.665h7.999v2.665zM22.664 11.998h-7.999v-2.665h7.999v2.665z"></path>
        </symbol>
        <symbol id="icon-figma" viewBox="0 0 21 32">
            <path d="M10.667 16c0-2.915 2.363-5.279 5.279-5.279v0c2.915 0 5.279 2.364 5.279 5.279v0c0 2.916-2.364 5.279-5.279 5.279v0c-2.916 0-5.279-2.363-5.279-5.279v0z"></path>
            <path d="M0.109 26.558c0-2.915 2.364-5.279 5.279-5.279h5.279v5.279c0 2.916-2.363 5.279-5.279 5.279v0c-2.916 0-5.279-2.363-5.279-5.279v0z"></path>
            <path d="M10.667 0.163v10.558h5.279c2.916 0 5.279-2.363 5.279-5.279v0c0-2.916-2.363-5.279-5.279-5.279h-5.279z"></path>
            <path d="M0.109 5.442c0 2.916 2.364 5.279 5.279 5.279h5.279v-10.558h-5.279c-2.916 0-5.279 2.364-5.279 5.279v0z"></path>
            <path d="M0.109 16c0 2.916 2.364 5.279 5.279 5.279h5.279v-10.558h-5.279c-2.916 0-5.279 2.364-5.279 5.279v0z"></path>
        </symbol>
        <symbol id="icon-git" viewBox="0 0 33 32">
            <path d="M16.285 0c-9.005 0-16.285 7.333-16.285 16.406 0 7.252 4.664 13.391 11.135 15.563 0.809 0.163 1.105-0.353 1.105-0.787 0-0.38-0.027-1.684-0.027-3.042-4.53 0.978-5.473-1.956-5.473-1.956-0.728-1.901-1.807-2.39-1.807-2.39-1.483-1.005 0.108-1.005 0.108-1.005 1.645 0.109 2.508 1.684 2.508 1.684 1.456 2.499 3.801 1.793 4.745 1.358 0.135-1.059 0.566-1.793 1.025-2.2-3.613-0.38-7.414-1.793-7.414-8.094 0-1.793 0.647-3.259 1.671-4.4-0.162-0.407-0.728-2.092 0.162-4.346 0 0 1.375-0.435 4.475 1.684 1.221-0.343 2.622-0.542 4.070-0.543h0.001c1.375 0 2.777 0.19 4.071 0.543 3.101-2.119 4.476-1.684 4.476-1.684 0.89 2.254 0.323 3.939 0.162 4.346 1.052 1.141 1.672 2.607 1.672 4.4 0 6.302-3.801 7.687-7.441 8.094 0.593 0.516 1.105 1.494 1.105 3.042 0 2.2-0.027 3.966-0.027 4.509 0 0.435 0.297 0.951 1.105 0.788 6.471-2.173 11.135-8.312 11.135-15.564 0.027-9.072-7.28-16.406-16.258-16.406z"></path>
        </symbol>
        <symbol id="icon-JQuery" viewBox="0 0 131 32">
            <path d="M55.867 11.52l0-0.001s-0.836 2.964-0.836 2.964 0.836-2.963 0.836-2.963z"></path>
            <path d="M60.169 17.955s-0.922-0.006-0.922-0.006 0.922 0.006 0.922 0.006z"></path>
            <path d="M59.932 22.382h0.001s-5.522 0.020-5.522 0.020 5.521-0.020 5.521-0.020z"></path>
            <path d="M61.090 17.961s-0.922-0.006-0.922-0.006 0.922 0.006 0.922 0.006z"></path>
            <path d="M60.416 22.006s0.962-3.668 0.962-3.668-0.962 3.669-0.962 3.669v-0z"></path>
            <path d="M80.747 5.112s-1.792 8.424-1.792 8.424 1.792-8.424 1.792-8.424z"></path>
            <path d="M76.141 5.112s-1.36 6.293-1.36 6.293 1.36-6.293 1.36-6.293v0z"></path>
            <path d="M80.44 4.733h-3.832c-0.213 0-0.424 0.171-0.469 0.378 0 0-1.36 6.293-1.36 6.293s-1.36 6.293-1.36 6.293c-0.045 0.208-0.256 0.378-0.468 0.378h-2.712c-2.683 0-2.373-1.856-1.823-4.398 0.005-0.026 0.011-0.051 0.016-0.077 0 0 0.060-0.32 0.060-0.32 0.004-0.021 0.008-0.041 0.011-0.060 0 0 0.122-0.652 0.122-0.652s0.131-0.699 0.131-0.699c0.040-0.211 0.1-0.519 0.14-0.713 0 0 0.618-3.021 0.618-3.021s0.619-3.021 0.619-3.021c0.043-0.208-0.097-0.38-0.309-0.38h-3.933c-0.213 0-0.423 0.171-0.467 0.379 0 0-0.846 4.012-0.846 4.012s-0.846 4.011-0.846 4.011c-0.001 0.002-0.001 0.004-0.001 0.006 0 0-0.079 0.373-0.079 0.373-0.974 4.447-0.716 8.687 4.578 8.82 0.087 0.003 0.154 0.003 0.154 0.003h8.309c0.213 0 0.423-0.171 0.468-0.379 0 0 1.792-8.423 1.792-8.423s1.792-8.424 1.792-8.424c0.044-0.208-0.094-0.379-0.306-0.379z"></path>
            <path d="M95.725 18.12c0.213 0 0.352 0.171 0.309 0.379 0 0-0.372 1.818-0.372 1.818z"></path>
            <path d="M95.291 22.137s0.372-1.82 0.372-1.82-0.372 1.82-0.372 1.82c0-0 0-0 0-0z"></path>
            <path d="M94.824 22.519c0.001 0 0.001-0 0.002-0-1.128 0.009-4.516 0.035-7.063 0.035 3.1 0 7.061-0.034 7.061-0.034z"></path>
            <path d="M85.478 15.778c-0.003-0.199 0.224-0.542 0.436-0.542 0 0-0.478-0.008-0.478-0.008-0.216 2.169 0.042 0.55 0.042 0.55z"></path>
            <path d="M88.112 22.553c-0.024 0-0.049 0-0.074 0 0.024-0 0.049-0 0.074-0z"></path>
            <path d="M95.725 18.12c0.213 0 0.352 0.171 0.309 0.379 0 0-0.372 1.818-0.372 1.818s-0.061 0.297-0.061 0.297z"></path>
            <path d="M89.926 22.549v0z"></path>
            <path d="M88.986 22.552v0z"></path>
            <path d="M88.699 22.552c-0.030 0-0.060 0-0.090 0 0.030-0 0.060-0 0.090-0z"></path>
            <path d="M88.407 22.553v0z"></path>
            <path d="M88.931 22.552c-0.078 0-0.155 0-0.232 0 0.077 0 0.154-0 0.232-0z"></path>
            <path d="M89.911 22.549c-0.31 0.001-0.62 0.003-0.924 0.003 0.305-0 0.615-0.002 0.924-0.003z"></path>
            <path d="M94.827 22.519h0c-0.826 0.007-2.867 0.022-4.902 0.030 2.034-0.007 4.075-0.023 4.902-0.030z"></path>
            <path d="M95.291 22.137s0.312-1.524 0.312-1.524-0.312 1.525-0.312 1.525c0-0 0-0 0-0.001z"></path>
            <path d="M88.609 22.553v0z"></path>
            <path d="M88.038 22.553v0z"></path>
            <path d="M88.327 22.553v0z"></path>
            <path d="M32.278 15.823s0.595-2.638 0.595-2.638-0.68 3.016-0.68 3.016-0.653 3.072-0.653 3.072 0.572-2.693 0.572-2.693c0.044-0.208 0.119-0.549 0.166-0.757z"></path>
            <path d="M39.401 4.689h-4.208c-0.213 0-0.425 0.17-0.473 0.377 0 0-0.399 1.761-0.399 1.761s-0.399 1.762-0.399 1.762c-0.047 0.207 0.089 0.377 0.302 0.377h4.241c0.213 0 0.424-0.17 0.47-0.378 0 0 0.386-1.761 0.386-1.761s0.386-1.76 0.386-1.76v-0c0.045-0.208-0.091-0.378-0.304-0.378z"></path>
            <path d="M38.486 10.547v-0.001s-1.234 5.71-1.234 5.71 1.234-5.709 1.234-5.709z"></path>
            <path d="M26.262 29.465s2.121 0.027 3.47 0.027c-1.024 0-2.716-0.019-3.471-0.028 0.001 0 0.001 0 0.002 0z"></path>
            <path d="M33.468 10.547s-0.596 2.638-0.596 2.638 0.596-2.638 0.596-2.638z"></path>
            <path d="M38.181 10.169h-4.241c-0.213 0-0.425 0.17-0.472 0.378 0 0-0.596 2.638-0.596 2.638s-0.595 2.638-0.595 2.638c-0.047 0.208-0.122 0.548-0.166 0.757 0 0-0.572 2.693-0.572 2.693s-0.572 2.693-0.572 2.693c-0.044 0.208-0.136 0.543-0.204 0.745 0 0-0.792 2.358-2.124 2.331-0.057-0.001-0.112-0.002-0.166-0.003-0.645-0.012-1.153-0.021-1.153-0.021h-0.001c-0.212-0.003-0.426 0.163-0.475 0.369 0 0-0.44 1.849-0.44 1.849s-0.439 1.848-0.439 1.848c-0.049 0.206 0.084 0.377 0.295 0.381 0.755 0.009 2.447 0.028 3.471 0.028 3.327 0 5.081-1.843 6.205-7.148 0 0 1.316-6.088 1.316-6.088s1.234-5.71 1.234-5.71c0.045-0.208-0.093-0.378-0.305-0.378z"></path>
            <path d="M98.427 22.338c-0.213 0-0.351-0.171-0.306-0.379 0 0 3.19-14.944 3.19-14.944z"></path>
            <path d="M102.861 21.958s1.29-6.378 1.29-6.378-1.29 6.378-1.29 6.378z"></path>
            <path d="M98.168 22.148c-0.026-0.104-0.011-0.359 0.034-0.568 0 0 1.514-7.093 1.514-7.093s-1.595 7.472-1.595 7.472c-0.045 0.208 0.093 0.379 0.306 0.379h0.387c-0.213 0-0.621-0.085-0.647-0.189z"></path>
            <path d="M102.609 22.252c-0.116 0.047-0.385 0.085-0.598 0.085h0.387c0.213 0 0.422-0.171 0.464-0.38 0 0 0.077-0.379 0.077-0.379-0.042 0.208-0.214 0.626-0.33 0.673z"></path>
            <path d="M103.508 18.769s0.57-2.815 0.57-2.815c-0 0.002-0.001 0.004-0.001 0.005 0 0-0.569 2.81-0.569 2.81z"></path>
            <path d="M116.096 8.016s0.176 0.726 0.176 0.726c0.048 0.208-0.086 0.376-0.298 0.377z"></path>
            <path d="M102.939 21.579s0.568-2.81 0.568-2.81-0.568 2.81-0.568 2.81z"></path>
            <path d="M115.921 7.272s0.174 0.744 0.174 0.744-0.174-0.744-0.174-0.744z"></path>
            <path d="M104.077 15.954c0.042-0.208 0.112-0.546 0.157-0.752 0 0 0.608-2.85 0.608-2.85s-0.689 3.228-0.689 3.228-0.076 0.374-0.076 0.374z"></path>
            <path d="M101.364 6.77c-0.042 0.201-0.097 0.455-0.132 0.623 0 0-1.514 7.094-1.514 7.094s1.595-7.472 1.595-7.472 0.051-0.245 0.051-0.245z"></path>
            <path d="M116.271 8.742s-0.176-0.726-0.176-0.726-0.174-0.744-0.174-0.744-0.088-0.376-0.088-0.376c-0.344-1.338-1.356-2.111-3.551-2.111 0 0-3.418-0.004-3.418-0.004s-3.148-0.004-3.148-0.004h-3.542c-0.213 0-0.423 0.17-0.467 0.378h-0s-0.157 0.74-0.157 0.74-0.185 0.874-0.185 0.874-0.051 0.245-0.051 0.245-1.595 7.472-1.595 7.472-1.514 7.093-1.514 7.093c-0.045 0.208-0.060 0.464-0.034 0.568s0.434 0.189 0.647 0.189h3.196c0.213 0 0.482-0.038 0.598-0.085s0.288-0.465 0.33-0.673c0 0 0.568-2.81 0.568-2.81s0.569-2.81 0.569-2.81c0-0.001 0.001-0.004 0.001-0.005 0 0 0.076-0.374 0.076-0.374s0.689-3.228 0.689-3.228 0.609-2.851 0.609-2.851c0.045-0.207 0.255-0.376 0.467-0.377 0 0 10.056-0.005 10.056-0.005 0.212-0.001 0.347-0.169 0.298-0.377z"></path>
            <path d="M129.216 2.177c-0.213 0.002-0.561 0.003-0.774 0.003h-3.219c-0.213 0-0.486 0.144-0.606 0.32 0 0-7.117 10.427-7.117 10.427-0.12 0.176-0.257 0.15-0.305-0.057 0 0-0.524-2.297-0.524-2.297-0.047-0.208-0.26-0.377-0.473-0.377h-4.575c-0.213 0-0.339 0.167-0.281 0.372 0 0 2.050 7.182 2.050 7.182 0.058 0.205 0.063 0.541 0.010 0.747 0 0-0.894 3.476-0.894 3.476-0.053 0.206 0.078 0.375 0.291 0.375h4.522c0.213 0 0.43-0.169 0.483-0.375 0 0 0.894-3.476 0.894-3.476 0.053-0.206 0.201-0.514 0.329-0.684 0 0 11.554-15.335 11.554-15.335 0.128-0.17 0.059-0.308-0.154-0.307 0 0-1.213 0.008-1.213 0.008z"></path>
            <path d="M92.866 11.172s-0-0.004-0-0.004c-0.027 0.231-0.24 0.4-0.452 0.4h-5.801c-0.2 0-0.302-0.136-0.273-0.305 0.002-0.005 0.002-0.009 0.005-0.013 0 0-0.002 0.001-0.004 0.002 0.001-0.007 0.001-0.013 0.003-0.020 0 0 0.011-0.041 0.026-0.099 0.554-1.473 1.683-2.44 3.803-2.44 2.388 0 2.854 1.167 2.692 2.478zM91.164 4.476c-7.446 0-9.21 4.52-10.2 9.081-0.99 4.649-0.905 8.996 6.8 8.996h0.274c0.024-0 0.049-0 0.074-0h0.497c0.030-0 0.060-0 0.090-0 0.077 0 0.154-0 0.232-0h0.055c0.305-0 0.614-0.002 0.924-0.003h0.016c2.035-0.008 4.076-0.023 4.902-0.030 0.211-0.003 0.418-0.174 0.462-0.38 0 0 0.312-1.525 0.312-1.525s0.061-0.297 0.061-0.297 0.372-1.818 0.372-1.818c0.043-0.208-0.097-0.379-0.309-0.379h-6.927c-2.755 0-3.573-0.732-3.272-2.884h11.073s-0.001 0.001-0.001 0.001c0.003 0 0.005-0.001 0.008-0.001 0.176-0.003 0.339-0.124 0.403-0.286 0.012-0.031 0.023-0.063 0.027-0.097 0 0-0.001 0.001-0.001 0.001 1.644-6.202 1.173-10.378-5.871-10.378z"></path>
            <path d="M55.972 11.148s-0.105 0.371-0.105 0.371c0 0.001-0 0.001-0 0.001s-0.836 2.963-0.836 2.963-0.836 2.963-0.836 2.963c-0.058 0.205-0.279 0.372-0.492 0.372h-4.425c-3.357 0-4.174-2.625-3.357-6.498 0.817-3.961 2.42-6.423 5.723-6.672 4.515-0.341 5.418 2.835 4.328 6.5zM59.007 17.59s2.086-5.066 2.56-7.992c0.646-3.917-1.315-9.598-8.89-9.598-7.532 0-10.803 5.424-12.051 11.32-1.248 5.939 0.387 11.147 7.877 11.105 0 0 5.908-0.022 5.908-0.022s5.522-0.020 5.522-0.020c0.213-0.002 0.43-0.171 0.484-0.376 0 0 0.962-3.669 0.962-3.669 0.054-0.206-0.076-0.375-0.289-0.376 0 0-0.922-0.006-0.922-0.006s-0.922-0.006-0.922-0.006c-0.181-0.001-0.284-0.118-0.263-0.274 0.004-0.028 0.010-0.057 0.023-0.087z"></path>
            <path d="M96.294 14.199c0 0.14-0.114 0.254-0.254 0.254s-0.254-0.114-0.254-0.254 0.114-0.253 0.254-0.253c0.14 0 0.254 0.113 0.254 0.253z"></path>
            <path d="M1.492 7.612c-2.080 2.989-1.821 6.878-0.232 10.054 0.038 0.076 0.077 0.151 0.116 0.226 0.025 0.048 0.048 0.096 0.074 0.143 0.015 0.028 0.031 0.055 0.046 0.082 0.027 0.051 0.055 0.099 0.083 0.148 0.049 0.087 0.1 0.174 0.152 0.26 0.029 0.047 0.057 0.095 0.087 0.143 0.057 0.093 0.116 0.184 0.176 0.275 0.025 0.039 0.049 0.078 0.075 0.116 0.083 0.124 0.168 0.247 0.255 0.368 0.002 0.003 0.005 0.007 0.007 0.010 0.014 0.020 0.029 0.038 0.043 0.058 0.076 0.104 0.154 0.207 0.232 0.309 0.029 0.037 0.058 0.074 0.087 0.111 0.070 0.088 0.142 0.176 0.215 0.264 0.027 0.033 0.055 0.066 0.082 0.098 0.098 0.115 0.197 0.23 0.299 0.342 0.002 0.002 0.004 0.004 0.006 0.006 0.004 0.005 0.008 0.008 0.012 0.013 0.099 0.108 0.201 0.214 0.304 0.32 0.032 0.033 0.065 0.066 0.097 0.098 0.080 0.080 0.161 0.16 0.243 0.238 0.033 0.032 0.066 0.064 0.099 0.094 0.109 0.103 0.22 0.204 0.333 0.303 0.002 0.002 0.003 0.003 0.005 0.004 0.019 0.017 0.039 0.033 0.058 0.049 0.099 0.086 0.2 0.171 0.302 0.255 0.041 0.034 0.083 0.066 0.125 0.1 0.083 0.066 0.167 0.132 0.252 0.197 0.045 0.034 0.090 0.068 0.135 0.102 0.093 0.069 0.188 0.136 0.283 0.203 0.035 0.025 0.068 0.049 0.103 0.073 0.010 0.007 0.019 0.013 0.028 0.020 0.090 0.062 0.182 0.122 0.274 0.182 0.040 0.026 0.079 0.054 0.119 0.079 0.141 0.090 0.285 0.178 0.43 0.263 0.039 0.023 0.079 0.044 0.119 0.067 0.107 0.062 0.214 0.122 0.323 0.181 0.059 0.032 0.119 0.062 0.178 0.092 0.077 0.040 0.153 0.081 0.231 0.12 0.018 0.009 0.036 0.017 0.053 0.026 0.031 0.015 0.063 0.030 0.094 0.046 0.121 0.058 0.243 0.115 0.366 0.169 0.026 0.012 0.051 0.023 0.077 0.035 0.141 0.062 0.283 0.121 0.427 0.177 0.034 0.014 0.069 0.027 0.104 0.041 0.133 0.051 0.267 0.102 0.403 0.149 0.017 0.006 0.034 0.012 0.051 0.018 0.148 0.052 0.298 0.1 0.449 0.147 0.036 0.010 0.072 0.022 0.108 0.032 0.153 0.046 0.305 0.102 0.464 0.131 10.058 1.834 12.98-6.044 12.98-6.044-2.454 3.197-6.809 4.040-10.936 3.101-0.156-0.035-0.308-0.084-0.461-0.129-0.039-0.012-0.077-0.023-0.115-0.035-0.149-0.046-0.297-0.094-0.443-0.144-0.020-0.007-0.040-0.015-0.061-0.022-0.132-0.046-0.262-0.095-0.391-0.145-0.037-0.015-0.073-0.029-0.11-0.043-0.142-0.056-0.283-0.115-0.422-0.175-0.029-0.012-0.056-0.025-0.084-0.037-0.12-0.054-0.238-0.109-0.356-0.166-0.034-0.016-0.068-0.032-0.103-0.049-0.093-0.045-0.184-0.093-0.275-0.14-0.061-0.032-0.123-0.063-0.184-0.096-0.112-0.060-0.221-0.122-0.33-0.185-0.037-0.021-0.074-0.041-0.112-0.062-0.145-0.085-0.288-0.174-0.43-0.263-0.039-0.025-0.077-0.052-0.116-0.077-0.103-0.066-0.205-0.134-0.306-0.203-0.033-0.023-0.066-0.047-0.099-0.069-0.097-0.069-0.194-0.138-0.289-0.209-0.043-0.032-0.086-0.065-0.128-0.097-0.088-0.067-0.175-0.135-0.261-0.204-0.039-0.031-0.078-0.062-0.116-0.093-0.11-0.090-0.218-0.181-0.325-0.274-0.011-0.010-0.023-0.020-0.036-0.030-0.116-0.102-0.229-0.206-0.342-0.311-0.033-0.031-0.064-0.062-0.096-0.093-0.083-0.079-0.165-0.159-0.245-0.241-0.032-0.032-0.065-0.064-0.096-0.096-0.102-0.105-0.203-0.211-0.301-0.319-0.005-0.006-0.010-0.010-0.015-0.016-0.104-0.114-0.206-0.23-0.306-0.348-0.027-0.032-0.053-0.063-0.080-0.095-0.074-0.090-0.148-0.18-0.22-0.272-0.027-0.033-0.054-0.067-0.081-0.101-0.087-0.112-0.171-0.224-0.254-0.338-2.291-3.125-3.114-7.436-1.283-10.976z"></path>
            <path d="M7.948 5.094c-1.504 2.164-1.422 5.062-0.249 7.351 0.197 0.384 0.418 0.756 0.665 1.111 0.225 0.323 0.475 0.707 0.774 0.967 0.108 0.119 0.222 0.236 0.337 0.35 0.029 0.030 0.059 0.058 0.089 0.088 0.112 0.109 0.227 0.216 0.345 0.32 0.005 0.004 0.009 0.008 0.014 0.012 0.001 0.001 0.002 0.002 0.003 0.003 0.131 0.115 0.266 0.225 0.403 0.333 0.030 0.023 0.061 0.048 0.091 0.071 0.137 0.105 0.277 0.209 0.421 0.308 0.004 0.003 0.008 0.006 0.012 0.009 0.063 0.044 0.128 0.085 0.192 0.127 0.031 0.020 0.060 0.041 0.091 0.060 0.103 0.066 0.207 0.13 0.312 0.191 0.015 0.009 0.030 0.017 0.044 0.026 0.091 0.052 0.183 0.104 0.276 0.154 0.032 0.018 0.065 0.034 0.098 0.051 0.064 0.034 0.128 0.068 0.193 0.1 0.010 0.005 0.020 0.009 0.029 0.013 0.133 0.065 0.266 0.128 0.403 0.188 0.029 0.013 0.059 0.024 0.089 0.037 0.109 0.046 0.219 0.091 0.33 0.134 0.047 0.018 0.094 0.035 0.141 0.052 0.101 0.037 0.201 0.071 0.303 0.105 0.046 0.015 0.091 0.030 0.137 0.044 0.145 0.045 0.288 0.102 0.438 0.127 7.766 1.287 9.559-4.692 9.559-4.692-1.616 2.328-4.746 3.438-8.086 2.571-0.148-0.039-0.295-0.082-0.44-0.127-0.044-0.013-0.088-0.028-0.132-0.043-0.103-0.034-0.206-0.069-0.308-0.106-0.047-0.017-0.093-0.034-0.139-0.052-0.111-0.043-0.222-0.087-0.331-0.133-0.030-0.013-0.060-0.024-0.089-0.038-0.137-0.060-0.272-0.122-0.405-0.188-0.069-0.034-0.136-0.069-0.203-0.104-0.039-0.020-0.078-0.040-0.117-0.060-0.086-0.047-0.172-0.096-0.257-0.145-0.020-0.012-0.041-0.023-0.062-0.035-0.105-0.062-0.209-0.125-0.311-0.19-0.032-0.020-0.062-0.042-0.094-0.063-0.068-0.044-0.135-0.088-0.202-0.133-0.143-0.099-0.282-0.202-0.42-0.307-0.032-0.025-0.063-0.049-0.094-0.074-1.462-1.154-2.621-2.731-3.172-4.52-0.577-1.855-0.453-3.937 0.547-5.627z"></path>
            <path d="M13.377 3.212c-0.887 1.305-0.974 2.925-0.358 4.367 0.649 1.53 1.978 2.73 3.53 3.299 0.064 0.024 0.128 0.045 0.193 0.067 0.028 0.009 0.056 0.018 0.085 0.027 0.091 0.029 0.182 0.062 0.277 0.080 4.288 0.828 5.451-2.2 5.761-2.646-1.019 1.467-2.731 1.819-4.832 1.309-0.166-0.040-0.348-0.1-0.508-0.157-0.205-0.073-0.407-0.156-0.604-0.251-0.373-0.179-0.729-0.397-1.058-0.646-1.88-1.426-3.048-4.147-1.821-6.363z"></path>
            <path d="M61.671 28.627s-1.236 2.815-1.236 2.815h-1.365s0.112-2.558 0.112-2.558-1.005 2.558-1.005 2.558h-1.321s-0.035-2.815-0.035-2.815 0.146-0.695 0.146-0.695h0.936s-0.18 2.78-0.18 2.78 1.039-2.78 1.039-2.78h1.305s-0.094 2.815-0.094 2.815 1.030-2.815 1.030-2.815h0.815s-0.146 0.695-0.146 0.695z"></path>
            <path d="M63.824 29.46c0.12-0.549 0.086-0.652-0.197-0.652h-0.429s-0.275 1.288-0.275 1.288-0.421 1.347-0.421 1.347h-0.798s0.652-3.055 0.652-3.055 0.095-0.447 0.095-0.447h0.73s0.094 0.206 0.094 0.206 0.421-0.249 0.832-0.249c0.876 0 0.807 0.66 0.618 1.562h-0.901z"></path>
            <path d="M66.417 27.494c-0.352 0-0.575-0.103-0.489-0.532 0.094-0.429 0.369-0.532 0.712-0.532s0.575 0.103 0.481 0.532c-0.086 0.42-0.36 0.532-0.704 0.532zM66.039 31.442h-0.79s0.155-1.373 0.155-1.373 0.275-1.27 0.275-1.27-0.549-0.121-0.549-0.121 0.154-0.746 0.154-0.746h1.502s-0.746 3.51-0.746 3.51z"></path>
            <path d="M69.463 28.677s-0.987 0.121-0.987 0.121-0.284 1.339-0.284 1.339c-0.077 0.369-0.077 0.472 0.249 0.472h0.661s-0.137 0.704-0.137 0.704-0.6 0.18-0.858 0.18c-1.013 0-1.004-0.558-0.824-1.391 0 0 0.275-1.313 0.275-1.313s-0.549-0.12-0.549-0.12 0.163-0.747 0.163-0.747h0.575s0.326-0.885 0.326-0.885h0.781s-0.189 0.885-0.189 0.885h0.961s-0.163 0.755-0.163 0.755z"></path>
            <path d="M71.514 28.722c-0.463 0-0.704 0.241-0.798 0.669 0 0 1.322-0.111 1.322-0.111 0.060-0.292 0-0.558-0.524-0.558zM70.588 30.026c-0.061 0.429 0.103 0.575 0.652 0.575h1.382s-0.137 0.652-0.137 0.652-0.832 0.232-1.45 0.232c-1.536 0-1.554-0.866-1.356-1.793 0.197-0.91 0.549-1.81 2.034-1.81 1.434 0 1.503 0.866 1.15 2.145h-2.274z"></path>
            <path d="M76.011 31.441h-0.789s0.154-1.373 0.154-1.373 0.558-2.609 0.558-2.609-0.55-0.129-0.55-0.129 0.163-0.747 0.163-0.747h1.502s-1.039 4.858-1.039 4.858z"></path>
            <path d="M78.863 28.722c-0.464 0-0.704 0.241-0.799 0.669 0 0 1.322-0.111 1.322-0.111 0.060-0.292 0-0.558-0.523-0.558zM77.936 30.026c-0.060 0.429 0.103 0.575 0.652 0.575h1.382s-0.137 0.652-0.137 0.652-0.833 0.232-1.451 0.232c-1.536 0-1.553-0.866-1.356-1.793 0.198-0.91 0.549-1.81 2.034-1.81 1.433 0 1.502 0.866 1.15 2.145h-2.275z"></path>
            <path d="M83.831 28.764s-1.004 0.009-1.279 0.009c-0.584 0-0.644 0.18-0.687 0.369 0 0-0.035 0.172-0.035 0.172s1.854 0.138 1.854 0.138 0.008 0.592-0.069 0.927c-0.111 0.558-0.687 1.124-1.725 1.124-0.515 0-1.348-0.197-1.348-0.197s0.146-0.678 0.146-0.678h1.279c0.567 0 0.644-0.155 0.679-0.309 0 0 0.043-0.223 0.043-0.223s-1.82-0.138-1.82-0.138-0.069-0.455 0.026-0.91c0.138-0.618 0.704-1.15 1.742-1.15 0.515 0 1.347 0.188 1.347 0.188s-0.154 0.679-0.154 0.679z"></path>
            <path d="M87.282 28.764s-1.004 0.009-1.279 0.009c-0.584 0-0.644 0.18-0.687 0.369 0 0-0.035 0.172-0.035 0.172s1.854 0.138 1.854 0.138 0.008 0.592-0.069 0.927c-0.111 0.558-0.687 1.124-1.725 1.124-0.515 0-1.347-0.197-1.347-0.197s0.146-0.678 0.146-0.678h1.279c0.566 0 0.644-0.155 0.678-0.309 0 0 0.043-0.223 0.043-0.223s-1.82-0.138-1.82-0.138-0.069-0.455 0.026-0.91c0.138-0.618 0.704-1.15 1.743-1.15 0.515 0 1.347 0.188 1.347 0.188s-0.154 0.679-0.154 0.679z"></path>
            <path d="M88.362 32h-0.686s0.026-0.515 0.026-0.515c-0.249-0.016-0.378-0.197-0.318-0.498 0.094-0.429 0.361-0.532 0.712-0.532 0.343 0 0.574 0.103 0.481 0.532 0 0-0.215 1.013-0.215 1.013z"></path>
            <path d="M92.953 28.799c-0.515 0-0.695 0.309-0.815 0.875s-0.086 0.901 0.429 0.901h0.712s0.395-1.776 0.395-1.776h-0.721zM94.129 30.987s-0.095 0.455-0.095 0.455-0.72-0.009-0.72-0.009-0.103-0.223-0.103-0.223-0.635 0.274-1.064 0.274c-1.099 0-1.15-0.901-0.953-1.81 0.197-0.927 0.627-1.803 1.717-1.803 0.395 0 0.927 0.197 0.927 0.197s0.438-1.485 0.438-1.485h0.79s-0.936 4.402-0.936 4.402z"></path>
            <path d="M96.97 28.764c-0.669 0-0.884 0.377-1.004 0.927-0.111 0.558-0.060 0.936 0.601 0.936 0.687 0 0.893-0.369 1.013-0.936 0.121-0.532 0.086-0.927-0.609-0.927zM96.387 31.493c-1.416 0-1.528-0.884-1.339-1.803 0.198-0.918 0.695-1.793 2.112-1.793 1.407 0 1.536 0.875 1.338 1.793-0.197 0.936-0.695 1.803-2.111 1.803z"></path>
            <path d="M104.421 31.441s0.155-1.356 0.155-1.356 0.077-0.386 0.077-0.386c0.112-0.515 0.18-0.892-0.361-0.892h-0.42c0.017 0.266-0.034 0.567-0.103 0.884 0 0-0.369 1.751-0.369 1.751h-0.798s0.154-1.356 0.154-1.356 0.077-0.386 0.077-0.386c0.112-0.515 0.18-0.892-0.36-0.892h-0.344s-0.567 2.635-0.567 2.635h-0.919s0.747-3.51 0.747-3.51h0.721s0.111 0.214 0.111 0.214 0.489-0.258 0.884-0.258c0.3 0 0.524 0.138 0.601 0.309 0.171-0.094 0.661-0.309 1.013-0.309 1.098 0 1.064 0.892 0.866 1.803 0 0-0.369 1.751-0.369 1.751h-0.798z"></path>
            <path d="M108.069 28.764c-0.67 0-0.884 0.377-1.004 0.927-0.111 0.558-0.060 0.936 0.601 0.936 0.687 0 0.893-0.369 1.013-0.936 0.12-0.532 0.086-0.927-0.609-0.927zM107.485 31.493c-1.417 0-1.528-0.884-1.339-1.803 0.197-0.918 0.695-1.793 2.111-1.793 1.408 0 1.536 0.875 1.339 1.793-0.197 0.936-0.695 1.803-2.111 1.803z"></path>
            <path d="M111.981 29.46c0.12-0.549 0.086-0.652-0.197-0.652h-0.429s-0.275 1.288-0.275 1.288-0.421 1.347-0.421 1.347h-0.798s0.652-3.055 0.652-3.055 0.095-0.447 0.095-0.447h0.73s0.094 0.206 0.094 0.206 0.421-0.249 0.833-0.249c0.875 0 0.806 0.66 0.617 1.562h-0.901z"></path>
            <path d="M115.055 28.722c-0.463 0-0.704 0.241-0.798 0.669 0 0 1.321-0.111 1.321-0.111 0.061-0.292 0-0.558-0.523-0.558zM114.129 30.026c-0.060 0.429 0.103 0.575 0.652 0.575h1.382s-0.137 0.652-0.137 0.652-0.833 0.232-1.45 0.232c-1.536 0-1.553-0.866-1.357-1.793 0.198-0.91 0.55-1.81 2.034-1.81 1.433 0 1.502 0.866 1.15 2.145h-2.274z"></path>
            <path d="M117.174 31.494c-0.361 0-0.583-0.103-0.489-0.523 0.085-0.43 0.352-0.532 0.712-0.532 0.334 0 0.566 0.102 0.481 0.532-0.095 0.412-0.369 0.523-0.704 0.523z"></path>
        </symbol>
        <symbol id="icon-Polylang" viewBox="0 0 140 32">
            <path d="M15.52 30.734c-8.135 0-14.734-6.595-14.734-14.734s6.599-14.734 14.734-14.734v29.467z"></path>
            <path d="M15.52 6.177c-5.423 0-9.822 4.399-9.822 9.823s4.399 9.822 9.822 9.822v-19.645z"></path>
            <path d="M13.457 6.395c-0.105 0.021-0.21 0.046-0.316 0.074-0.084 0.021-0.168 0.046-0.253 0.070-2.592 0.782-4.483 3.192-4.483 6.044 0 2.603 1.575 4.838 3.824 5.806 0.765 0.326 1.607 0.509 2.491 0.509 0.27 0 0.537-0.018 0.8-0.053v-12.668c-0.709 0-1.4 0.074-2.063 0.218z"></path>
            <path d="M15.52 24.419v1.403c-3.806 0-7.104-2.164-8.731-5.325 1.814 2.059 4.353 3.469 7.22 3.831 0.477 0.060 0.968 0.091 1.463 0.091h0.049z"></path>
            <path d="M12.561 13.333c0.93 0 1.684-0.754 1.684-1.684s-0.754-1.684-1.684-1.684c-0.93 0-1.684 0.754-1.684 1.684s0.754 1.684 1.684 1.684z"></path>
            <path d="M12.923 12.191c0.465 0 0.842-0.377 0.842-0.842s-0.377-0.842-0.842-0.842c-0.465 0-0.842 0.377-0.842 0.842s0.377 0.842 0.842 0.842z"></path>
            <path d="M25.343 16c0 1.235-0.228 2.417-0.649 3.508-0.105-2.487-1.649-4.599-3.817-5.532-0.372 1.663-1.4 3.077-2.799 3.957-0.758 0.477-1.628 0.796-2.557 0.912v-12.668c2.080 0 4.010 0.645 5.599 1.754 2.554 1.772 4.224 4.725 4.224 8.069z"></path>
            <path d="M24.385 20.244c-1.463 3.045-4.441 5.216-7.96 5.536-0.295 0.028-0.596 0.042-0.902 0.042v-6.977c1.13-0.14 2.164-0.579 3.027-1.238 1.14 1.617 3.024 2.673 5.157 2.673 0.228 0 0.456-0.011 0.677-0.035z"></path>
            <path d="M24.381 20.244c-1.463 3.041-4.441 5.216-7.96 5.536-0.295 0.028-0.596 0.042-0.902 0.042v-1.403c3.561-0.014 6.742-1.635 8.858-4.175h0.004z"></path>
            <path d="M25.346 16c0 0.4-0.025 0.796-0.074 1.182-0.221-3.529-2.308-6.55-5.287-8.090-0.203-0.109-0.41-0.207-0.621-0.298-1.179-0.509-2.477-0.793-3.841-0.8v-1.817c2.080 0 4.010 0.645 5.599 1.754 2.554 1.772 4.224 4.725 4.224 8.069z"></path>
            <path d="M49.51 12.729c0 1.456-0.338 2.669-1.007 3.64-0.675 0.971-1.604 1.693-2.796 2.168s-2.6 0.712-4.236 0.712h-3.012v6.615h-3.207v-19.649h6.251c1.609 0 3.017 0.243 4.215 0.728 1.203 0.485 2.131 1.208 2.796 2.168s0.992 2.168 0.992 3.624l0.005-0.005zM46.234 12.729c0-0.949-0.211-1.699-0.628-2.247s-0.997-0.955-1.735-1.208c-0.739-0.253-1.572-0.38-2.495-0.38h-2.912v7.675h2.912c0.928 0 1.757-0.127 2.495-0.38s1.319-0.654 1.735-1.208c0.417-0.549 0.628-1.303 0.628-2.247v-0.005z"></path>
            <path d="M64.923 18.473c0 1.456-0.338 2.748-1.007 3.888-0.675 1.134-1.593 2.020-2.764 2.664-1.171 0.638-2.479 0.96-3.935 0.96s-2.769-0.322-3.935-0.96c-1.171-0.638-2.089-1.524-2.764-2.664s-1.008-2.432-1.008-3.888c0-1.456 0.338-2.78 1.008-3.903 0.675-1.124 1.593-2.004 2.764-2.648 1.166-0.638 2.479-0.96 3.935-0.96s2.769 0.322 3.935 0.96c1.166 0.638 2.089 1.519 2.764 2.648 0.67 1.124 1.007 2.426 1.007 3.903zM61.716 18.473c0-0.949-0.206-1.783-0.612-2.495-0.406-0.717-0.949-1.277-1.619-1.688-0.675-0.406-1.429-0.612-2.263-0.612s-1.598 0.206-2.284 0.612c-0.686 0.406-1.224 0.971-1.619 1.688s-0.596 1.551-0.596 2.495 0.206 1.783 0.612 2.495c0.406 0.712 0.955 1.277 1.635 1.688 0.686 0.406 1.435 0.612 2.247 0.612 0.86 0 1.625-0.206 2.3-0.612 0.67-0.406 1.208-0.971 1.604-1.688s0.596-1.551 0.596-2.495z"></path>
            <path d="M70.14 4.631v20.968h-3.107v-20.804l3.107-0.164z"></path>
            <path d="M87.030 11.046l-4.531 12.338c-0.659 1.83-1.387 3.339-2.184 4.531-0.791 1.192-1.651 2.105-2.579 2.743s-1.92 1.071-2.975 1.292l-1.324-2.416c1.145-0.285 2.089-0.754 2.827-1.408 0.739-0.649 1.371-1.493 1.905-2.532l-5.919-14.485 3.276-0.132 3.207 7.838c0.243 0.686 0.48 1.345 0.712 1.983s0.391 1.171 0.48 1.588h0.164c0.089-0.417 0.221-0.95 0.395-1.588s0.375-1.313 0.596-2.020l2.78-7.738h3.175l-0.005 0.005z"></path>
            <path d="M92.253 4.631v20.968h-3.107v-20.804l3.107-0.164z"></path>
            <path d="M107.069 25.599h-2.943v-1.224c-0.575 0.417-1.266 0.765-2.083 1.044s-1.699 0.411-2.648 0.411c-1.63 0-2.88-0.38-3.74-1.139s-1.293-1.804-1.293-3.123c0-1.477 0.528-2.585 1.588-3.323s2.469-1.108 4.236-1.108c0.707 0 1.419 0.063 2.131 0.2s1.298 0.295 1.735 0.496v-1.356c0-1.034-0.316-1.788-0.944-2.247s-1.561-0.696-2.795-0.696c-0.86 0-1.709 0.111-2.548 0.332s-1.519 0.496-2.052 0.828l-0.132-2.78c0.659-0.353 1.435-0.622 2.316-0.812 0.881-0.185 1.819-0.28 2.811-0.28 2.031 0 3.592 0.427 4.695 1.292 1.103 0.86 1.651 2.247 1.651 4.167v9.326l0.016-0.011zM104.057 22.556v-2.748c-0.395-0.222-0.886-0.385-1.471-0.496s-1.166-0.163-1.735-0.163c-1.061 0-1.883 0.19-2.479 0.564s-0.891 0.981-0.891 1.82c0 0.77 0.258 1.329 0.775 1.672s1.218 0.512 2.099 0.512c0.681 0 1.366-0.121 2.052-0.364 0.68-0.243 1.234-0.506 1.651-0.791v-0.005z"></path>
            <path d="M122.303 25.599h-3.107v-8.93c0-1.081-0.264-1.867-0.791-2.363s-1.266-0.744-2.215-0.744c-0.639 0-1.298 0.127-1.968 0.38-0.675 0.253-1.319 0.58-1.936 0.976v10.682h-3.107v-14.485l3.107-0.132v1.556c0.791-0.596 1.599-1.029 2.416-1.308 0.818-0.274 1.657-0.411 2.516-0.411 1.567 0 2.807 0.417 3.719 1.255s1.371 2.152 1.371 3.935v9.59h-0.005z"></path>
            <path d="M138.771 10.65l-0.063 2.511h-2.611c0.375 0.332 0.665 0.739 0.876 1.224s0.316 0.992 0.316 1.519c0 1.435-0.495 2.611-1.487 3.539s-2.347 1.435-4.067 1.519l-2.021 2.084c0.243-0.042 0.549-0.079 0.929-0.1 0.375-0.021 0.754-0.042 1.139-0.063s0.691-0.032 0.907-0.032c2.073 0 3.645 0.364 4.711 1.092 1.071 0.728 1.603 1.809 1.603 3.239s-0.58 2.532-1.735 3.423c-1.161 0.891-3.039 1.34-5.639 1.34-1.435 0-2.796-0.137-4.083-0.411s-2.331-0.654-3.128-1.139l0.233-2.711c0.506 0.306 1.134 0.591 1.883 0.844s1.588 0.464 2.516 0.628c0.929 0.164 1.841 0.248 2.743 0.248 1.123 0 1.994-0.095 2.611-0.28 0.617-0.19 1.061-0.448 1.324-0.775s0.396-0.696 0.396-1.092c0-0.728-0.317-1.234-0.944-1.519s-1.693-0.433-3.191-0.433c-0.771 0-1.609 0.032-2.517 0.1-0.902 0.063-1.667 0.164-2.284 0.295v-2.284l2.58-2.548c-1.456-0.2-2.59-0.76-3.408-1.688-0.817-0.923-1.223-2.015-1.223-3.276 0-1.013 0.247-1.904 0.743-2.664s1.197-1.356 2.099-1.788c0.902-0.433 1.973-0.644 3.207-0.644 0.839 0 1.609 0.111 2.315 0.332l5.259-0.496 0.011 0.005zM134.403 15.91c0-0.86-0.285-1.561-0.859-2.099s-1.356-0.812-2.347-0.812c-0.992 0-1.767 0.269-2.331 0.812-0.565 0.538-0.844 1.24-0.844 2.099s0.279 1.535 0.844 2.084c0.564 0.549 1.339 0.828 2.331 0.828s1.772-0.269 2.347-0.812c0.575-0.538 0.859-1.24 0.859-2.099z"></path>
        </symbol>
        <symbol id="icon-sass" viewBox="0 0 43 32">
            <path d="M36.717 18.383c-1.492 0.008-2.783 0.367-3.867 0.9-0.4-0.792-0.8-1.483-0.867-2-0.075-0.6-0.167-0.967-0.075-1.683s0.508-1.733 0.508-1.817c-0.008-0.075-0.092-0.442-0.95-0.45s-1.6 0.167-1.683 0.392-0.25 0.742-0.358 1.275c-0.15 0.783-1.717 3.558-2.608 5.017-0.292-0.567-0.542-1.067-0.592-1.467-0.075-0.6-0.167-0.967-0.075-1.683s0.508-1.733 0.508-1.817c-0.008-0.075-0.092-0.442-0.95-0.45s-1.6 0.167-1.683 0.392-0.175 0.758-0.358 1.275c-0.175 0.517-2.258 5.15-2.8 6.358-0.275 0.617-0.517 1.108-0.692 1.442s-0.008 0.025-0.025 0.058c-0.15 0.283-0.233 0.442-0.233 0.442v0.008c-0.117 0.208-0.242 0.408-0.3 0.408-0.042 0-0.125-0.558 0.017-1.325 0.308-1.608 1.058-4.117 1.050-4.208 0-0.042 0.142-0.483-0.483-0.708-0.608-0.225-0.825 0.15-0.875 0.15s-0.092 0.133-0.092 0.133 0.675-2.825-1.292-2.825c-1.233 0-2.933 1.342-3.775 2.567-0.533 0.292-1.667 0.908-2.867 1.567-0.458 0.25-0.933 0.517-1.383 0.758l-0.092-0.1c-2.383-2.542-6.792-4.342-6.608-7.758 0.067-1.242 0.5-4.517 8.467-8.483 6.525-3.25 11.75-2.358 12.658-0.375 1.292 2.833-2.792 8.1-9.575 8.858-2.583 0.292-3.942-0.708-4.283-1.083-0.358-0.392-0.408-0.408-0.542-0.333-0.217 0.117-0.083 0.467 0 0.675 0.2 0.525 1.033 1.458 2.45 1.925 1.242 0.408 4.275 0.633 7.942-0.783 4.108-1.592 7.317-6.008 6.375-9.7-0.958-3.758-7.192-4.992-13.083-2.9-3.508 1.25-7.308 3.2-10.042 5.758-3.25 3.033-3.767 5.683-3.55 6.783 0.758 3.925 6.167 6.483 8.333 8.375-0.108 0.058-0.208 0.117-0.3 0.167-1.083 0.533-5.208 2.692-6.242 4.975-1.167 2.583 0.183 4.442 1.083 4.692 2.783 0.775 5.633-0.617 7.175-2.908 1.533-2.292 1.35-5.267 0.642-6.625l-0.025-0.050 0.85-0.5c0.55-0.325 1.092-0.625 1.567-0.883-0.267 0.725-0.458 1.583-0.558 2.833-0.117 1.467 0.483 3.367 1.275 4.117 0.35 0.325 0.767 0.333 1.025 0.333 0.917 0 1.333-0.758 1.792-1.667 0.567-1.108 1.067-2.392 1.067-2.392s-0.625 3.475 1.083 3.475c0.625 0 1.25-0.808 1.533-1.225v0.008s0.017-0.025 0.050-0.083c0.067-0.1 0.1-0.158 0.1-0.158v-0.017c0.25-0.433 0.808-1.425 1.642-3.067 1.075-2.117 2.108-4.767 2.108-4.767s0.1 0.65 0.408 1.717c0.183 0.633 0.583 1.325 0.892 2-0.25 0.35-0.4 0.55-0.4 0.55l0.008 0.008c-0.2 0.267-0.425 0.55-0.658 0.833-0.85 1.017-1.867 2.175-2 2.508-0.158 0.392-0.125 0.683 0.183 0.917 0.225 0.167 0.625 0.2 1.050 0.167 0.767-0.050 1.3-0.242 1.567-0.358 0.417-0.15 0.892-0.375 1.35-0.708 0.833-0.617 1.342-1.492 1.292-2.658-0.025-0.642-0.233-1.275-0.492-1.875 0.075-0.108 0.15-0.217 0.225-0.333 1.317-1.925 2.333-4.042 2.333-4.042s0.1 0.65 0.408 1.717c0.158 0.542 0.475 1.133 0.758 1.717-1.233 1.008-2.008 2.175-2.275 2.942-0.492 1.417-0.108 2.058 0.617 2.208 0.325 0.067 0.792-0.083 1.142-0.233 0.433-0.142 0.958-0.383 1.442-0.742 0.833-0.617 1.633-1.475 1.592-2.633-0.025-0.533-0.167-1.058-0.358-1.558 1.050-0.433 2.408-0.683 4.133-0.475 3.708 0.433 4.442 2.75 4.3 3.717s-0.917 1.5-1.175 1.667c-0.258 0.158-0.342 0.217-0.317 0.333 0.033 0.175 0.15 0.167 0.375 0.133 0.308-0.050 1.95-0.792 2.017-2.575 0.1-2.292-2.075-4.792-5.933-4.767zM8.117 28.025c-1.225 1.342-2.95 1.85-3.683 1.417-0.792-0.458-0.483-2.433 1.025-3.858 0.917-0.867 2.108-1.667 2.892-2.158 0.175-0.108 0.442-0.267 0.758-0.458 0.050-0.033 0.083-0.050 0.083-0.050 0.058-0.033 0.125-0.075 0.192-0.117 0.558 2.033 0.025 3.817-1.267 5.225zM17.075 21.933c-0.425 1.042-1.325 3.717-1.867 3.567-0.467-0.125-0.75-2.15-0.092-4.15 0.333-1.008 1.042-2.208 1.458-2.675 0.675-0.75 1.408-1 1.592-0.692 0.217 0.4-0.825 3.3-1.092 3.95zM24.467 25.467c-0.183 0.092-0.35 0.158-0.425 0.108-0.058-0.033 0.075-0.158 0.075-0.158s0.925-0.992 1.292-1.45c0.208-0.267 0.458-0.575 0.725-0.925v0.1c0 1.2-1.15 2-1.667 2.325zM30.167 24.167c-0.133-0.1-0.117-0.408 0.333-1.375 0.175-0.383 0.575-1.025 1.267-1.633 0.083 0.25 0.133 0.492 0.125 0.717-0.008 1.5-1.075 2.058-1.725 2.292z"></path>
        </symbol>
        <symbol id="icon-woocommerce-svgrepo-com" viewBox="0 0 32 32">
            <path d="M15.103 14.682c0.292 0 0.443 0.273 0.443 0.826 0.002 0.029 0.003 0.063 0.003 0.098 0 0.215-0.046 0.42-0.13 0.604l0.004-0.009c-0.066 0.105-0.181 0.174-0.312 0.174-0.006 0-0.011 0-0.017 0h0.001c-0.003 0-0.007 0-0.010 0-0.126 0-0.235-0.070-0.292-0.172l-0.001-0.002c-0.070-0.17-0.111-0.368-0.111-0.575 0-0.045 0.002-0.090 0.006-0.135v0.006c0-0.546 0.138-0.814 0.416-0.814zM9.56 14.675c-0.165 0.020-0.303 0.121-0.374 0.261l-0.001 0.003c-0.157 0.217-0.25 0.489-0.25 0.783 0 0.006 0 0.012 0 0.018v-0.001c0.002 0.137 0.029 0.267 0.078 0.386l-0.003-0.007c0.061 0.163 0.146 0.248 0.245 0.269 0.011 0.001 0.024 0.002 0.036 0.002 0.12 0 0.227-0.052 0.301-0.134v0c0.163-0.161 0.276-0.373 0.315-0.609l0.001-0.006c0.017-0.092 0.028-0.198 0.029-0.307v-0.001c-0.002-0.137-0.029-0.267-0.078-0.386l0.003 0.007c-0.063-0.163-0.145-0.248-0.245-0.269-0.017-0.004-0.036-0.007-0.056-0.007h-0.001zM6.953 14.675c-0.165 0.020-0.304 0.121-0.375 0.261l-0.001 0.003c-0.157 0.217-0.25 0.489-0.25 0.783 0 0.006 0 0.012 0 0.018v-0.001c0.002 0.137 0.029 0.267 0.078 0.386l-0.003-0.007c0.061 0.163 0.146 0.248 0.245 0.269 0.011 0.001 0.024 0.002 0.036 0.002 0.12 0 0.227-0.052 0.301-0.134v0c0.163-0.161 0.276-0.373 0.315-0.609l0.001-0.006c0.018-0.089 0.029-0.191 0.029-0.295 0-0.005 0-0.009 0-0.014v0.001c-0.002-0.137-0.029-0.267-0.078-0.386l0.003 0.007c-0.063-0.163-0.145-0.248-0.245-0.269-0.017-0.004-0.036-0.007-0.056-0.007h-0.001zM26.003 14.661c0.014-0.001 0.030-0.002 0.047-0.002 0.127 0 0.246 0.034 0.348 0.093l-0.003-0.002c0.071 0.060 0.116 0.149 0.116 0.248 0 0.013-0.001 0.025-0.002 0.037v-0.002q0 0.293-0.506 0.3v-0.675zM23.469 14.12v2.834h1.552v-0.605h-0.785v-0.521h0.677v-0.586h-0.676v-0.519h0.779v-0.603zM29.468 14.115v2.834h1.552v-0.605h-0.789v-0.518h0.676v-0.586h-0.676v-0.521h0.784v-0.605zM25.241 14.115v2.834h0.765v-1.29h0.015l0.618 1.289h0.807l-0.612-1.275c0.271-0.118 0.459-0.382 0.463-0.69v-0.001c0-0.007 0-0.016 0-0.024 0-0.25-0.123-0.472-0.311-0.607l-0.002-0.002c-0.219-0.147-0.488-0.235-0.778-0.235-0.026 0-0.051 0.001-0.077 0.002h0.004zM20.249 14.115l-0.363 2.834h0.725l0.195-1.951 0.496 1.951h0.516l0.469-1.946 0.207 1.946h0.755l-0.382-2.834h-0.988l-0.149 0.636c-0.038 0.163-0.075 0.33-0.108 0.501l-0.083 0.441c-0.079-0.441-0.188-0.965-0.325-1.577zM16.785 14.115l-0.363 2.834h0.725l0.195-1.951 0.494 1.951h0.516l0.474-1.946 0.205 1.946h0.755l-0.381-2.834h-0.99l-0.15 0.636c-0.038 0.163-0.075 0.33-0.109 0.501l-0.084 0.44q-0.145-0.792-0.323-1.577zM28.798 14.040c-0.017-0.001-0.038-0.001-0.058-0.001-0.778 0-1.409 0.631-1.409 1.409 0 0.017 0 0.034 0.001 0.051v-0.002c-0.001 0.021-0.002 0.045-0.002 0.069 0 0.4 0.157 0.764 0.413 1.033l-0.001-0.001c0.262 0.261 0.622 0.422 1.021 0.422 0.020 0 0.040 0 0.060-0.001h-0.003c0.155-0.002 0.304-0.025 0.444-0.068l-0.011 0.003v-0.676c-0.113 0.037-0.243 0.060-0.377 0.064h-0.002c-0.007 0-0.016 0-0.025 0-0.199 0-0.378-0.085-0.503-0.221v0c-0.125-0.164-0.2-0.371-0.2-0.597 0-0.222 0.073-0.427 0.197-0.592l-0.002 0.003c0.115-0.139 0.288-0.227 0.481-0.227 0.006 0 0.011 0 0.017 0h-0.001c0.148 0.001 0.291 0.023 0.426 0.064l-0.011-0.003v-0.672c-0.132-0.036-0.283-0.056-0.439-0.056-0.005 0-0.010 0-0.016 0h0.001zM13.26 14.040c-0.017-0.001-0.038-0.001-0.058-0.001-0.778 0-1.409 0.631-1.409 1.409 0 0.017 0 0.034 0.001 0.051v-0.002c-0.001 0.021-0.002 0.045-0.002 0.069 0 0.4 0.157 0.764 0.413 1.033l-0.001-0.001c0.261 0.261 0.622 0.422 1.020 0.422 0.020 0 0.040 0 0.061-0.001h-0.003c0.155-0.002 0.304-0.025 0.444-0.068l-0.011 0.003v-0.676c-0.113 0.037-0.243 0.060-0.377 0.064h-0.002c-0.007 0-0.016 0-0.025 0-0.199 0-0.378-0.085-0.503-0.221v0c-0.125-0.164-0.2-0.371-0.2-0.597 0-0.222 0.073-0.427 0.197-0.592l-0.002 0.003c0.115-0.139 0.288-0.227 0.481-0.227 0.006 0 0.011 0 0.017 0h-0.001c0.149 0.001 0.291 0.023 0.426 0.064l-0.011-0.003v-0.672c-0.132-0.036-0.283-0.056-0.44-0.056-0.005 0-0.010 0-0.016 0h0.001zM15.095 14.037c-0.017-0.001-0.036-0.001-0.056-0.001-0.335 0-0.636 0.147-0.842 0.381l-0.001 0.001c-0.202 0.266-0.324 0.602-0.324 0.967 0 0.037 0.001 0.073 0.004 0.109v-0.005c-0.002 0.035-0.004 0.075-0.004 0.116 0 0.382 0.121 0.735 0.328 1.023l-0.004-0.005c0.208 0.244 0.516 0.398 0.86 0.398 0.025 0 0.050-0.001 0.075-0.002h-0.003c0.018 0.001 0.040 0.002 0.061 0.002 0.341 0 0.645-0.154 0.849-0.395l0.001-0.002c0.202-0.278 0.324-0.625 0.324-1.002 0-0.036-0.001-0.073-0.003-0.109v0.005c0.002-0.032 0.003-0.069 0.003-0.106 0-0.374-0.123-0.72-0.332-0.998l0.003 0.004c-0.216-0.236-0.525-0.383-0.868-0.383-0.025 0-0.050 0.001-0.074 0.002h0.003zM9.541 13.979c0.080 0 0.158 0.009 0.232 0.026l-0.007-0.001c0.288 0.055 0.526 0.234 0.661 0.478l0.002 0.005c0.127 0.221 0.201 0.485 0.201 0.768 0 0.018 0 0.036-0.001 0.054v-0.003c0 0.006 0 0.013 0 0.021 0 0.427-0.121 0.827-0.33 1.166l0.005-0.010c-0.182 0.366-0.549 0.616-0.976 0.626h-0.001c-0.081-0.002-0.158-0.011-0.233-0.029l0.007 0.001c-0.288-0.055-0.527-0.233-0.662-0.476l-0.002-0.005c-0.126-0.225-0.201-0.493-0.201-0.779 0-0.016 0-0.032 0.001-0.048v0.002c0-0.006 0-0.013 0-0.021 0-0.426 0.121-0.824 0.331-1.162l-0.005 0.009c0.183-0.365 0.549-0.613 0.975-0.623h0.001zM6.933 13.979c0.080 0 0.158 0.009 0.232 0.026l-0.007-0.001c0.288 0.057 0.525 0.235 0.661 0.478l0.003 0.005c0.127 0.221 0.202 0.487 0.202 0.77 0 0.017 0 0.034-0.001 0.051v-0.002c0 0.005 0 0.012 0 0.018 0 0.428-0.121 0.829-0.331 1.168l0.005-0.010c-0.182 0.366-0.549 0.616-0.976 0.626h-0.001c-0.081-0.002-0.158-0.011-0.233-0.029l0.007 0.001c-0.288-0.055-0.527-0.233-0.662-0.476l-0.003-0.005c-0.125-0.224-0.199-0.491-0.199-0.775 0-0.018 0-0.035 0.001-0.053v0.003c0-0.008 0-0.016 0-0.025 0-0.424 0.12-0.821 0.329-1.157l-0.005 0.009c0.183-0.365 0.549-0.613 0.975-0.623h0.001zM5.315 13.528h0.038c0.086 0.002 0.164 0.033 0.225 0.084h-0.001c0.073 0.056 0.122 0.14 0.129 0.237v0.001c0.001 0.009 0.001 0.019 0.001 0.030 0 0.062-0.016 0.121-0.043 0.172l0.001-0.002c-0.2 0.438-0.343 0.945-0.401 1.478l-0.002 0.022c-0.077 0.41-0.121 0.883-0.121 1.365 0 0.078 0.001 0.155 0.003 0.232v-0.011c0.002 0.016 0.003 0.035 0.003 0.054 0 0.080-0.019 0.156-0.053 0.222l0.001-0.003c-0.041 0.084-0.123 0.143-0.219 0.15h-0.001c-0.001 0-0.001 0-0.002 0-0.132 0-0.249-0.060-0.327-0.154l-0.001-0.001c-0.433-0.488-0.753-1.085-0.914-1.744l-0.006-0.028q-0.406 0.798-0.598 1.198c-0.245 0.471-0.454 0.711-0.628 0.723-0.113 0.009-0.208-0.086-0.292-0.285-0.295-0.901-0.535-1.97-0.676-3.069l-0.009-0.090c-0.003-0.017-0.005-0.037-0.005-0.058 0-0.083 0.027-0.159 0.073-0.221l-0.001 0.001c0.061-0.078 0.156-0.128 0.262-0.128 0 0 0.001 0 0.001 0v0c0.018-0.004 0.038-0.006 0.059-0.006 0.167 0 0.302 0.135 0.302 0.302 0 0.001 0 0.001 0 0.002v0c0.129 0.87 0.272 1.607 0.421 2.21l0.91-1.736c0.052-0.132 0.169-0.228 0.311-0.249h0.002c0.183-0.013 0.297 0.104 0.342 0.35 0.097 0.541 0.233 1.018 0.412 1.474l-0.018-0.052c0.043-0.837 0.242-1.618 0.567-2.328l-0.016 0.040c0.050-0.105 0.152-0.178 0.272-0.184h0.001zM1.924 12.971c0 0 0 0 0 0-0.521 0-0.944 0.423-0.944 0.944 0 0.002 0 0.004 0 0.005v0 3.16c0 0 0 0.001 0 0.001 0 0.523 0.424 0.947 0.947 0.947 0 0 0.001 0 0.001 0h3.924l1.791 1-0.408-1h2.97c0 0 0.001 0 0.001 0 0.523 0 0.948-0.424 0.948-0.948 0 0 0-0.001 0-0.001v0-3.16c0 0 0-0.001 0-0.001 0-0.523-0.424-0.948-0.948-0.948 0 0-0.001 0-0.001 0v0z"></path>
        </symbol>
        <symbol id="icon-wp-engine" viewBox="0 0 164 32">
            <path d="M162.837 8.725l-0.588 1.398-0.583-1.398h-0.414v1.917h0.34v-1.291l0.568 1.291h0.186l0.562-1.286v1.286h0.348v-1.917h-0.418zM159.409 9.025h0.58v1.617h0.346v-1.617h0.58v-0.3h-1.506v0.3zM59.682 8.617h-3.546c-0.072 0-0.135 0.049-0.151 0.12-0.24 1.12-2.065 9.682-2.166 10.4-0.008 0.054-0.042 0.054-0.049 0-0.114-0.718-2.088-9.292-2.343-10.403-0.016-0.068-0.077-0.118-0.149-0.118-0 0-0 0-0 0h-3.309c-0.072 0-0.134 0.048-0.149 0.118-0.257 1.109-2.237 9.685-2.348 10.403-0.011 0.066-0.049 0.066-0.060 0-0.105-0.718-1.923-9.278-2.162-10.4-0.015-0.071-0.077-0.122-0.151-0.122h-3.546c-0 0-0 0-0.001 0-0.085 0-0.154 0.069-0.154 0.154 0 0.014 0.002 0.028 0.006 0.041l-0-0.001 3.857 14.442c0.018 0.068 0.078 0.114 0.149 0.114h3.729c0.071 0 0.132-0.048 0.149-0.117 0.234-0.986 1.874-7.897 2.245-9.514 0.018-0.080 0.131-0.080 0.149 0 0.375 1.615 2.035 8.529 2.271 9.514 0.017 0.069 0.078 0.117 0.149 0.117h3.72c0.069 0 0.131-0.046 0.149-0.114l3.857-14.442c0.026-0.097-0.048-0.194-0.149-0.194l0.003 0.002zM71.157 9.26c-0.805-0.429-1.762-0.643-2.871-0.643h-5.734c-0.085 0-0.154 0.069-0.154 0.154v14.442c0 0.085 0.069 0.154 0.154 0.154h3.186c0.085 0 0.154-0.069 0.154-0.154v-4.449h2.294c1.128 0 2.102-0.211 2.92-0.634 0.818-0.422 1.449-1.009 1.891-1.762s0.663-1.637 0.663-2.652c0-1.015-0.217-1.897-0.649-2.663s-1.051-1.363-1.855-1.792h0.002zM70.063 14.912c-0.185 0.343-0.462 0.611-0.832 0.802-0.369 0.191-0.828 0.288-1.375 0.288h-1.962v-4.554h1.952c0.548 0 1.008 0.092 1.38 0.277s0.651 0.448 0.837 0.788c0.185 0.34 0.277 0.742 0.277 1.203s-0.092 0.855-0.277 1.198v-0.002zM89.835 10.442c-0.574-0.578-1.22-1.009-1.938-1.292-0.66-0.269-1.427-0.425-2.229-0.425-0.005 0-0.010 0-0.014 0h0.001c-1.234 0-2.317 0.317-3.249 0.951-0.934 0.634-1.66 1.503-2.178 2.609-0.52 1.106-0.778 2.374-0.778 3.8s0.265 2.691 0.792 3.788c0.528 1.098 1.275 1.957 2.243 2.578 0.968 0.62 2.114 0.931 3.44 0.931 0.954 0 1.798-0.154 2.534-0.463 0.735-0.308 1.345-0.715 1.831-1.223 0.443-0.463 0.775-0.96 0.997-1.492 0.034-0.083-0.012-0.177-0.097-0.205l-1.345-0.428c-0.075-0.023-0.154 0.014-0.186 0.085-0.168 0.366-0.405 0.706-0.712 1.020-0.342 0.351-0.765 0.632-1.266 0.843-0.503 0.211-1.083 0.317-1.742 0.317-0.971 0-1.814-0.229-2.528-0.691-0.714-0.46-1.265-1.106-1.654-1.938-0.363-0.777-0.554-1.675-0.578-2.692h10.357c0.085 0 0.154-0.069 0.154-0.154v-0.594c0-1.198-0.165-2.242-0.494-3.129-0.329-0.886-0.782-1.62-1.355-2.198l-0.003 0.003zM81.735 12.854c0.375-0.777 0.9-1.402 1.571-1.875 0.671-0.472 1.455-0.709 2.351-0.709s1.677 0.232 2.318 0.697c0.642 0.465 1.135 1.098 1.482 1.9 0.282 0.652 0.448 1.375 0.5 2.166h-8.774c0.045-0.783 0.228-1.509 0.552-2.178zM103.389 9.326c-0.722-0.402-1.565-0.602-2.528-0.602-1.072 0-2.025 0.274-2.857 0.823-0.665 0.438-1.186 1.098-1.568 1.974l-0.009-2.454c0-0.085-0.069-0.154-0.154-0.154h-1.352c-0.085 0-0.154 0.069-0.154 0.154v13.855c0 0.085 0.069 0.154 0.154 0.154h1.415c0.085 0 0.154-0.069 0.154-0.154v-8.675c0-0.811 0.171-1.514 0.512-2.109s0.809-1.051 1.4-1.368c0.591-0.317 1.258-0.475 2.002-0.475 1.089 0 1.958 0.335 2.609 1.008 0.651 0.671 0.975 1.586 0.975 2.743v8.878c0 0.085 0.069 0.154 0.154 0.154h1.403c0.085 0 0.154-0.069 0.154-0.154v-9.005c0-1.123-0.205-2.069-0.614-2.838-0.409-0.768-0.975-1.354-1.697-1.754v-0.002zM120.554 8.914h-1.365c-0.085 0-0.154 0.069-0.154 0.154v2.569h-0.177c-0.186-0.431-0.454-0.872-0.805-1.323-0.351-0.452-0.812-0.829-1.388-1.134-0.574-0.305-1.292-0.455-2.154-0.455-1.157 0-2.175 0.305-3.054 0.912s-1.563 1.455-2.052 2.54c-0.489 1.085-0.735 2.351-0.735 3.794s0.249 2.686 0.748 3.725 1.185 1.837 2.058 2.394c0.874 0.557 1.872 0.835 2.995 0.835 0.845 0 1.554-0.137 2.128-0.412 0.574-0.274 1.042-0.625 1.4-1.051s0.631-0.86 0.817-1.298h0.165v3.18c0 1.3-0.38 2.262-1.14 2.882-0.76 0.622-1.765 0.931-3.015 0.931-0.786 0-1.449-0.108-1.989-0.323s-0.982-0.494-1.325-0.835c-0.3-0.3-0.546-0.608-0.738-0.925-0.045-0.072-0.138-0.097-0.211-0.054l-1.162 0.705c-0.069 0.043-0.095 0.132-0.057 0.205 0.272 0.505 0.638 0.955 1.098 1.354 0.498 0.431 1.112 0.771 1.843 1.020s1.577 0.374 2.54 0.374c1.132 0 2.142-0.188 3.028-0.563s1.583-0.952 2.091-1.729c0.506-0.777 0.76-1.765 0.76-2.965v-14.351c0-0.085-0.069-0.154-0.154-0.154h0.003zM118.505 18.852c-0.338 0.815-0.826 1.44-1.463 1.875-0.638 0.435-1.408 0.652-2.312 0.652s-1.702-0.229-2.343-0.691c-0.642-0.46-1.132-1.1-1.469-1.918-0.338-0.818-0.506-1.765-0.506-2.838s0.166-2.009 0.5-2.863c0.334-0.852 0.822-1.531 1.463-2.034s1.428-0.754 2.357-0.754c0.929 0 1.697 0.243 2.331 0.728 0.634 0.486 1.117 1.152 1.451 2.002s0.5 1.822 0.5 2.92c0 1.098-0.169 2.105-0.506 2.92l-0.002 0.002zM126.711 8.914h-1.415c-0.085 0-0.154 0.069-0.154 0.154v0 13.855c0 0.085 0.069 0.154 0.154 0.154v0h1.415c0.085 0 0.154-0.069 0.154-0.154v0-13.855c0-0.085-0.069-0.154-0.154-0.154v0zM126.003 6.906c0.538 0 0.974-0.436 0.974-0.974s-0.436-0.974-0.974-0.974v0c-0.538 0-0.974 0.436-0.974 0.974s0.436 0.974 0.974 0.974v0zM140.046 9.326c-0.722-0.402-1.565-0.602-2.528-0.602-1.072 0-2.025 0.274-2.857 0.823-0.665 0.438-1.186 1.098-1.568 1.974l-0.009-2.454c0-0.085-0.069-0.154-0.154-0.154h-1.352c-0.085 0-0.154 0.069-0.154 0.154v13.855c0 0.085 0.069 0.154 0.154 0.154h1.415c0.085 0 0.154-0.069 0.154-0.154v-8.675c0-0.811 0.171-1.514 0.512-2.109s0.809-1.051 1.4-1.368c0.591-0.317 1.258-0.475 2.002-0.475 1.089 0 1.958 0.335 2.609 1.008 0.651 0.671 0.975 1.586 0.975 2.743v8.878c0 0.085 0.069 0.154 0.154 0.154h1.403c0.085 0 0.154-0.069 0.154-0.154v-9.005c0-1.123-0.205-2.069-0.614-2.838-0.409-0.768-0.975-1.354-1.697-1.754v-0.002zM155.812 10.442c-0.574-0.578-1.22-1.009-1.938-1.292-0.661-0.269-1.427-0.425-2.229-0.425-0.005 0-0.010 0-0.014 0h0.001c-1.234 0-2.317 0.317-3.249 0.951-0.934 0.634-1.66 1.503-2.178 2.609-0.52 1.106-0.778 2.374-0.778 3.8s0.265 2.691 0.792 3.788c0.528 1.098 1.275 1.957 2.243 2.578 0.968 0.62 2.114 0.931 3.44 0.931 0.954 0 1.798-0.154 2.534-0.463 0.735-0.308 1.345-0.715 1.831-1.223 0.443-0.463 0.775-0.96 0.997-1.492 0.034-0.083-0.012-0.177-0.097-0.205l-1.345-0.428c-0.075-0.023-0.154 0.014-0.186 0.085-0.168 0.366-0.405 0.706-0.712 1.020-0.342 0.351-0.765 0.632-1.266 0.843-0.503 0.211-1.083 0.317-1.742 0.317-0.971 0-1.814-0.229-2.528-0.691-0.714-0.46-1.265-1.106-1.654-1.938-0.363-0.777-0.554-1.675-0.578-2.692h10.357c0.085 0 0.154-0.069 0.154-0.154v-0.594c0-1.198-0.165-2.242-0.494-3.129-0.329-0.886-0.782-1.62-1.355-2.198l-0.003 0.003zM147.711 12.854c0.375-0.777 0.9-1.402 1.571-1.875 0.671-0.472 1.455-0.709 2.351-0.709s1.677 0.232 2.318 0.697c0.642 0.465 1.135 1.098 1.482 1.9 0.282 0.652 0.448 1.375 0.5 2.166h-8.774c0.045-0.783 0.228-1.509 0.552-2.178z"></path>
            <path d="M20.462 32c0.255 0 0.462-0.206 0.462-0.462v-6.54c0-0.245-0.097-0.48-0.271-0.652l-1.922-1.922c-0.167-0.167-0.397-0.271-0.652-0.271 0 0 0 0-0 0h-4.158c-0.245 0-0.48 0.097-0.652 0.271l-1.922 1.922c-0.167 0.167-0.271 0.397-0.271 0.652 0 0 0 0 0 0v0 6.54c0 0.255 0.206 0.462 0.462 0.462h8.925zM24.345 11.348l-1.922 1.922c-0.167 0.167-0.271 0.397-0.271 0.652 0 0 0 0 0 0v0 4.158c0 0.245 0.097 0.48 0.271 0.652l1.922 1.922c0.167 0.167 0.397 0.271 0.652 0.271 0 0 0 0 0 0h6.54c0.255 0 0.462-0.206 0.462-0.462v-8.923c0-0.255-0.206-0.462-0.462-0.462h-6.54c-0.245 0-0.48 0.097-0.652 0.271v-0.002zM11.538 0c-0.255 0-0.462 0.206-0.462 0.462v6.54c0 0.245 0.097 0.48 0.271 0.652l1.922 1.922c0.167 0.167 0.397 0.271 0.652 0.271 0 0 0 0 0 0h4.158c0.245 0 0.48-0.097 0.652-0.271l1.922-1.922c0.167-0.167 0.271-0.397 0.271-0.652 0 0 0 0 0-0v0-6.54c0-0.255-0.206-0.462-0.462-0.462h-8.925zM31.538 22.154h-6.54c-0.245 0-0.48 0.097-0.652 0.271l-1.922 1.922c-0.167 0.167-0.271 0.397-0.271 0.652 0 0 0 0 0 0v0 6.54c0 0.255 0.206 0.462 0.462 0.462h8.923c0.255 0 0.462-0.206 0.462-0.462v-8.923c0-0.255-0.206-0.462-0.462-0.462zM9.385 0h-6.54c-0.246 0-0.48 0.097-0.654 0.271l-1.92 1.92c-0.167 0.167-0.271 0.398-0.271 0.653 0 0 0 0.001 0 0.001v-0 6.54c0 0.255 0.206 0.462 0.462 0.462h6.54c0.245 0 0.48-0.097 0.652-0.271l1.922-1.922c0.167-0.167 0.271-0.397 0.271-0.652 0 0 0 0 0-0v0-6.54c0-0.255-0.206-0.462-0.462-0.462zM22.154 0.462v6.54c0 0.245 0.097 0.48 0.271 0.652l1.922 1.922c0.167 0.167 0.397 0.271 0.652 0.271 0 0 0 0 0 0h6.54c0.255 0 0.462-0.206 0.462-0.462v-8.923c0-0.255-0.206-0.462-0.462-0.462h-8.923c-0.255 0-0.462 0.206-0.462 0.462zM16 18.462c-1.36 0-2.462-1.102-2.462-2.462s1.103-2.462 2.462-2.462 2.462 1.102 2.462 2.462-1.103 2.462-2.462 2.462zM0 22.615v8.923c0 0.255 0.206 0.462 0.462 0.462h8.923c0.255 0 0.462-0.206 0.462-0.462v-6.54c0-0.245-0.097-0.48-0.271-0.652l-1.922-1.922c-0.167-0.167-0.397-0.271-0.652-0.271 0 0 0 0-0 0h-6.54c-0.255 0-0.462 0.206-0.462 0.462zM9.575 13.268l-1.922-1.922c-0.167-0.167-0.397-0.271-0.652-0.271 0 0 0 0-0 0h-6.54c-0.255 0.002-0.462 0.208-0.462 0.463v8.923c0 0.255 0.206 0.462 0.462 0.462h6.646c0.245 0 0.48-0.097 0.652-0.271l1.815-1.814c0.167-0.167 0.271-0.397 0.271-0.652 0 0 0 0 0-0v0-4.265c0-0.245-0.097-0.48-0.271-0.652v-0.002z"></path>
        </symbol>
        <symbol id="icon-wp" viewBox="0 0 32 32">
            <path d="M25.545 10.901c0.842 1.537 1.321 3.3 1.321 5.176 0 3.98-2.157 7.455-5.365 9.325l3.295-9.528c0.616-1.539 0.82-2.77 0.82-3.864 0-0.397-0.026-0.766-0.073-1.109zM17.564 11.019c0.65-0.034 1.235-0.102 1.235-0.102 0.581-0.069 0.513-0.923-0.069-0.889 0 0-1.748 0.137-2.876 0.137-1.060 0-2.841-0.137-2.841-0.137-0.582-0.034-0.65 0.855-0.068 0.889 0 0 0.55 0.068 1.132 0.102l1.681 4.606-2.361 7.081-3.929-11.687c0.65-0.034 1.235-0.102 1.235-0.102 0.581-0.069 0.512-0.923-0.069-0.889 0 0-1.747 0.137-2.875 0.137-0.202 0-0.441-0.005-0.694-0.013 1.929-2.929 5.245-4.863 9.014-4.863 2.809 0 5.366 1.074 7.285 2.833-0.046-0.003-0.092-0.009-0.14-0.009-1.060 0-1.812 0.923-1.812 1.915 0 0.889 0.513 1.641 1.060 2.53 0.41 0.719 0.89 1.642 0.89 2.976 0 0.923-0.355 1.995-0.821 3.488l-1.076 3.596zM16.077 26.867c-1.059 0-2.081-0.155-3.048-0.44l3.237-9.406 3.316 9.086c0.022 0.053 0.049 0.102 0.077 0.149-1.121 0.395-2.326 0.612-3.583 0.612zM5.289 16.077c0-1.564 0.335-3.049 0.934-4.391l5.147 14.101c-3.599-1.749-6.081-5.439-6.081-9.71zM16.077 4.077c-6.617 0-12 5.383-12 12s5.383 12 12 12c6.617 0 12-5.384 12-12.001s-5.383-12-12-12z"></path>
        </symbol>
        <symbol id="icon-yoast" viewBox="0 0 72 32">
            <path d="M69.126 19.769v-8.087h2.888v-3.509h-2.888v-4.217h-4.462v4.231h-2.267v3.509h2.267v7.625c0 4.332 3.018 6.903 6.209 7.437l1.329-3.581c-1.863-0.245-3.061-1.632-3.076-3.408z"></path>
            <path d="M46.614 18.484v-6.065c0-0.217-0.014-0.433-0.029-0.635-0.39-4.91-7.365-4.895-12.751-3.018l1.545 3.148c3.509-1.675 5.617-1.242 6.354-0.419 0.014 0.014 0.043 0.043 0.058 0.058 0 0 0 0 0 0.014 0.375 0.505 0.289 1.3 0.289 1.935-4.592 0-9.487 0.607-9.487 5.646 0 3.827 4.794 6.296 9.819 2.643l0.751 1.791h4.303c-0.404-2.094-0.852-3.899-0.852-5.097zM42.108 18.455c-3.538 3.957-6.773 0.231-3.451-1.386 0.982-0.332 2.296-0.347 3.451-0.347v1.733z"></path>
            <path d="M53.473 12.101c0-1.502 2.397-2.195 6.181-0.477l1.314-3.177c-5.083-1.531-12.029-1.675-12.072 3.639-0.014 2.556 1.617 3.928 3.971 4.794 1.632 0.607 3.986 0.924 3.986 2.224-0.014 1.704-3.653 1.964-6.989-0.332l-1.343 3.437c4.534 2.253 12.953 2.325 12.91-3.336-0.058-5.588-7.957-4.607-7.957-6.773z"></path>
            <path d="M14.181 0l-6.469 17.949-3.105-9.704h-4.606l5.155 13.256c0.433 1.126 0.433 2.383 0 3.509-0.578 1.473-1.531 2.744-3.87 3.061v3.928c4.549 0 7.018-2.801 9.213-8.939l8.607-23.061h-4.924z"></path>
            <path d="M23.856 7.653c-5.574 0-7.798 3.942-7.798 8.116 0 4.332 2.18 7.884 7.798 7.884 5.588 0 7.812-3.986 7.798-7.884-0.014-4.751-2.426-8.116-7.798-8.116zM23.856 20.217c-2.267 0-3.379-1.69-3.379-4.462s1.199-4.751 3.379-4.751c2.166 0 3.35 1.978 3.35 4.751s-1.083 4.462-3.35 4.462z"></path>
        </symbol>
    </defs>
</svg>
