<svg width="210" height="48" viewBox="0 0 210 48" fill="none" xmlns="http://www.w3.org/2000/svg">
<g clip-path="url(#clip0_6716_22065)">
<path d="M23.2803 46.1006C11.0776 46.1006 1.17969 36.208 1.17969 24C1.17969 11.7921 11.0776 1.89941 23.2803 1.89941V46.1006Z" fill="url(#paint0_radial_6716_22065)"/>
<path d="M23.2801 9.26562C15.145 9.26562 8.54639 15.8642 8.54639 23.9994C8.54639 32.1345 15.145 38.7331 23.2801 38.7331V9.26562Z" fill="#EEEEFB"/>
<path d="M20.1862 9.59187C20.0284 9.62344 19.8705 9.66028 19.7127 9.70237C19.5864 9.73395 19.4601 9.77078 19.3338 9.80762C15.4451 10.9811 12.6089 14.5961 12.6089 18.8741C12.6089 22.7786 14.9715 26.1305 18.3445 27.5828C19.4916 28.0722 20.7545 28.3458 22.0806 28.3458C22.4858 28.3458 22.8857 28.3195 23.2803 28.2669V9.26562C22.2174 9.26562 21.1808 9.37613 20.1862 9.59187Z" fill="white"/>
<path d="M23.2803 36.6281V38.7329C17.571 38.7329 12.6247 35.4862 10.1831 30.7451C12.9036 33.8339 16.7133 35.9493 21.0124 36.4913C21.728 36.5807 22.4647 36.6281 23.2067 36.6281H23.2803Z" fill="#D2D7E8"/>
<path d="M18.8422 19.9989C20.2375 19.9989 21.3686 18.8679 21.3686 17.4726C21.3686 16.0774 20.2375 14.9463 18.8422 14.9463C17.447 14.9463 16.3159 16.0774 16.3159 17.4726C16.3159 18.8679 17.447 19.9989 18.8422 19.9989Z" />
<path d="M19.3852 18.2871C20.0829 18.2871 20.6484 17.7215 20.6484 17.0239C20.6484 16.3263 20.0829 15.7607 19.3852 15.7607C18.6876 15.7607 18.1221 16.3263 18.1221 17.0239C18.1221 17.7215 18.6876 18.2871 19.3852 18.2871Z" fill="white"/>
<path d="M38.014 23.9994C38.014 25.8516 37.672 27.6249 37.0405 29.2614C36.8827 25.5306 34.5674 22.3629 31.3154 20.9632C30.7576 23.4574 29.2159 25.578 27.1163 26.8988C25.9797 27.6144 24.6747 28.0932 23.2803 28.2669V9.26562C26.4007 9.26562 29.2948 10.2338 31.6785 11.8966C35.5093 14.554 38.014 18.9846 38.014 23.9994Z" fill="#B7BCD1"/>
<path d="M36.5776 30.3662C34.3833 34.9337 29.9158 38.1909 24.638 38.6698C24.196 38.7119 23.7434 38.7329 23.2856 38.7329V28.2667C24.98 28.0562 26.5323 27.3984 27.8268 26.4092C29.537 28.835 32.3627 30.4189 35.562 30.4189C35.904 30.4189 36.2461 30.4031 36.5776 30.3662Z" />
<path d="M36.5722 30.3662C34.3779 34.9284 29.9105 38.1909 24.6326 38.6697C24.1906 38.7118 23.7381 38.7329 23.2803 38.7329V36.628C28.6213 36.607 33.3939 34.1759 36.5669 30.3662H36.5722Z" />
<path d="M38.0194 23.9994C38.0194 24.5992 37.9825 25.1938 37.9089 25.7727C37.5774 20.4791 34.4465 15.9484 29.979 13.6384C29.6738 13.4753 29.3633 13.3279 29.0476 13.1911C27.2795 12.4281 25.3326 12.0019 23.2856 11.9914V9.26562C26.406 9.26562 29.3002 10.2338 31.6839 11.8966C35.5146 14.554 38.0194 18.9846 38.0194 23.9994Z" fill="#D2D7E8"/>
</g>
<path d="M74.2649 19.093C74.2649 21.2768 73.7585 23.0966 72.7537 24.5525C71.7409 26.0084 70.3483 27.0923 68.5601 27.8045C66.772 28.5166 64.6594 28.8726 62.2065 28.8726H57.6886V38.7947H52.8779V9.32129H62.254C64.6673 9.32129 66.7799 9.68526 68.576 10.4132C70.38 11.1411 71.7725 12.2251 72.7695 13.6651C73.7664 15.1052 74.257 16.9171 74.257 19.1009L74.2649 19.093ZM69.3514 19.093C69.3514 17.6688 69.0349 16.5452 68.4098 15.7224C67.7847 14.8995 66.9144 14.2902 65.8067 13.9104C64.6989 13.5306 63.4488 13.3407 62.0641 13.3407H57.6965V24.8532H62.0641C63.4567 24.8532 64.6989 24.6633 65.8067 24.2835C66.9144 23.9037 67.7847 23.3023 68.4098 22.4716C69.0349 21.6487 69.3514 20.5172 69.3514 19.1009V19.093Z" />
<path d="M97.3844 27.7095C97.3844 29.8933 96.878 31.8318 95.8732 33.5409C94.8604 35.242 93.4837 36.5713 91.7271 37.5366C89.9706 38.494 88.0083 38.9766 85.8245 38.9766C83.6407 38.9766 81.6706 38.494 79.922 37.5366C78.1654 36.5792 76.7887 35.25 75.7759 33.5409C74.7631 31.8318 74.2646 29.8933 74.2646 27.7095C74.2646 25.5257 74.771 23.5397 75.7759 21.8544C76.7887 20.1691 78.1654 18.8477 79.922 17.8824C81.6706 16.925 83.6407 16.4424 85.8245 16.4424C88.0083 16.4424 89.9785 16.925 91.7271 17.8824C93.4757 18.8398 94.8604 20.1612 95.8732 21.8544C96.878 23.5397 97.3844 25.4941 97.3844 27.7095ZM92.5737 27.7095C92.5737 26.2853 92.2652 25.0352 91.6559 23.967C91.0467 22.8909 90.2317 22.0522 89.2268 21.4351C88.2141 20.8258 87.0826 20.5172 85.8325 20.5172C84.5823 20.5172 83.435 20.8258 82.4064 21.4351C81.3778 22.0443 80.5708 22.8909 79.9773 23.967C79.3839 25.0431 79.0832 26.2932 79.0832 27.7095C79.0832 29.1258 79.3918 30.3839 80.0011 31.452C80.6103 32.5202 81.4332 33.3668 82.4539 33.984C83.4825 34.5932 84.606 34.9018 85.8245 34.9018C87.1142 34.9018 88.2615 34.5932 89.2743 33.984C90.2792 33.3747 91.0862 32.5281 91.6797 31.452C92.2731 30.376 92.5737 29.1258 92.5737 27.7095Z" />
<path d="M105.21 6.94727V38.3987H100.55V7.19255L105.21 6.94727Z"/>
<path d="M130.545 16.5687L123.749 35.0756C122.76 37.8212 121.668 40.0841 120.473 41.8723C119.286 43.6604 117.996 45.0293 116.604 45.9867C115.211 46.944 113.724 47.5929 112.141 47.9252L110.155 44.3013C111.872 43.8741 113.289 43.1699 114.396 42.1888C115.504 41.2155 116.453 39.9496 117.253 38.3908L108.375 16.6636L113.289 16.4658L118.099 28.2235C118.463 29.2521 118.819 30.2412 119.167 31.1985C119.516 32.1559 119.753 32.9551 119.887 33.5802H120.133C120.267 32.9551 120.465 32.1559 120.726 31.1985C120.987 30.2412 121.288 29.2284 121.62 28.1681L125.79 16.5608H130.553L130.545 16.5687Z" />
<path d="M138.379 6.94727V38.3987H133.718V7.19255L138.379 6.94727Z"/>
<path d="M160.604 38.3987H156.189V36.5631C155.327 37.1881 154.29 37.7103 153.064 38.1297C151.837 38.5491 150.516 38.7469 149.092 38.7469C146.647 38.7469 144.772 38.1772 143.482 37.0378C142.192 35.8984 141.543 34.3318 141.543 32.3537C141.543 30.1383 142.335 28.4767 143.925 27.369C145.515 26.2612 147.628 25.7074 150.279 25.7074C151.339 25.7074 152.407 25.8023 153.475 26.008C154.543 26.2138 155.422 26.4511 156.078 26.7518V24.7183C156.078 23.1675 155.604 22.0361 154.662 21.3477C153.721 20.6593 152.32 20.3033 150.469 20.3033C149.179 20.3033 147.905 20.4694 146.647 20.8017C145.389 21.1341 144.368 21.5455 143.569 22.044L143.371 17.8742C144.36 17.3441 145.523 16.9405 146.845 16.6557C148.166 16.3788 149.574 16.2363 151.062 16.2363C154.108 16.2363 156.45 16.8772 158.104 18.1748C159.758 19.4646 160.58 21.5455 160.58 24.4256V38.4145L160.604 38.3987ZM156.086 33.8333V29.711C155.493 29.3787 154.757 29.1334 153.879 28.9672C153 28.8011 152.13 28.722 151.276 28.722C149.685 28.722 148.451 29.0068 147.557 29.5686C146.663 30.1304 146.22 31.0403 146.22 32.2983C146.22 33.4535 146.607 34.2922 147.383 34.8065C148.158 35.3208 149.21 35.574 150.532 35.574C151.553 35.574 152.581 35.392 153.61 35.0281C154.63 34.6641 155.461 34.2685 156.086 33.8412V33.8333Z" />
<path d="M183.455 38.3988H178.795V25.0033C178.795 23.3812 178.399 22.2023 177.608 21.4586C176.816 20.7148 175.709 20.3429 174.285 20.3429C173.327 20.3429 172.338 20.5328 171.333 20.9126C170.32 21.2924 169.355 21.783 168.429 22.3764V38.3988H163.769V16.6716L168.429 16.4738V18.8079C169.616 17.9138 170.827 17.265 172.053 16.8457C173.28 16.4342 174.538 16.2285 175.827 16.2285C178.177 16.2285 180.037 16.8536 181.406 18.1116C182.774 19.3697 183.463 21.3399 183.463 24.0142V38.3988H183.455Z" />
<path d="M208.157 15.9757L208.062 19.7419H204.145C204.707 20.2404 205.142 20.8497 205.459 21.5776C205.775 22.3055 205.933 23.0651 205.933 23.8564C205.933 26.0085 205.19 27.7729 203.702 29.1655C202.215 30.5581 200.181 31.3177 197.602 31.4443L194.571 34.5696C194.935 34.5063 195.394 34.4509 195.964 34.4193C196.526 34.3876 197.095 34.356 197.673 34.3243C198.251 34.2927 198.71 34.2769 199.034 34.2769C202.143 34.2769 204.501 34.8228 206.1 35.9147C207.706 37.0066 208.505 38.6286 208.505 40.7729C208.505 42.9171 207.635 44.5708 205.902 45.908C204.161 47.2452 201.344 47.9177 197.444 47.9177C195.291 47.9177 193.25 47.712 191.319 47.3005C189.389 46.8891 187.822 46.3194 186.627 45.5915L186.976 41.5245C187.735 41.9835 188.677 42.4107 189.8 42.7905C190.924 43.1703 192.182 43.4868 193.574 43.7321C194.967 43.9774 196.336 44.104 197.689 44.104C199.374 44.104 200.68 43.9615 201.605 43.6846C202.531 43.3998 203.196 43.0121 203.591 42.5215C203.987 42.0309 204.185 41.4771 204.185 40.8836C204.185 39.7917 203.71 39.0322 202.769 38.6049C201.827 38.1776 200.229 37.9561 197.982 37.9561C196.826 37.9561 195.568 38.0036 194.207 38.1064C192.854 38.2014 191.707 38.3517 190.781 38.5495V35.1235L194.651 31.3018C192.467 31.0012 190.766 30.1625 189.539 28.7699C188.313 27.3852 187.704 25.7474 187.704 23.8564C187.704 22.3372 188.075 21 188.819 19.8606C189.563 18.7213 190.615 17.8272 191.968 17.1784C193.321 16.5295 194.927 16.2131 196.779 16.2131C198.037 16.2131 199.192 16.3792 200.252 16.7115L208.141 15.9678L208.157 15.9757ZM201.605 23.8643C201.605 22.5746 201.178 21.5222 200.316 20.7152C199.453 19.9081 198.282 19.4967 196.795 19.4967C195.307 19.4967 194.144 19.9002 193.298 20.7152C192.451 21.5222 192.032 22.5746 192.032 23.8643C192.032 25.154 192.451 26.1667 193.298 26.9896C194.144 27.8125 195.307 28.2319 196.795 28.2319C198.282 28.2319 199.453 27.8283 200.316 27.0134C201.178 26.2063 201.605 25.154 201.605 23.8643Z" />
<defs>
<radialGradient id="paint0_radial_6716_22065" cx="0" cy="0" r="1" gradientUnits="userSpaceOnUse" gradientTransform="translate(23.2698 24) scale(22.0901 22.0901)">
<stop stop-color="#971F31"/>
<stop offset="0.442708" stop-color="#971F31"/>
<stop offset="0.817708" stop-color="#E71D36"/>
<stop offset="1" stop-color="#E71D36"/>
</radialGradient>
<clipPath id="clip0_6716_22065">
<rect width="37.0627" height="44.2105" fill="white" transform="translate(1.05273 1.89453)"/>
</clipPath>
</defs>
</svg>
