<svg fill="#000000" width="800px" height="800px" viewBox="0 0 32 32" version="1.1" xmlns="http://www.w3.org/2000/svg">
<title>woocommerce</title>
<path d="M15.103 14.682c0.292 0 0.443 0.273 0.443 0.826 0.002 0.029 0.003 0.063 0.003 0.098 0 0.215-0.046 0.42-0.13 0.604l0.004-0.009c-0.066 0.105-0.181 0.174-0.312 0.174-0.006 0-0.011-0-0.017-0l0.001 0c-0.003 0-0.007 0-0.010 0-0.126 0-0.235-0.070-0.292-0.172l-0.001-0.002c-0.070-0.17-0.111-0.368-0.111-0.575 0-0.045 0.002-0.090 0.006-0.135l-0 0.006c0-0.546 0.138-0.814 0.416-0.814zM9.56 14.675c-0.165 0.020-0.303 0.121-0.374 0.261l-0.001 0.003c-0.157 0.217-0.25 0.489-0.25 0.783 0 0.006 0 0.012 0 0.018v-0.001c0.002 0.137 0.029 0.267 0.078 0.386l-0.003-0.007c0.061 0.163 0.146 0.248 0.245 0.269 0.011 0.001 0.024 0.002 0.036 0.002 0.12 0 0.227-0.052 0.301-0.134l0-0c0.163-0.161 0.276-0.373 0.315-0.609l0.001-0.006c0.017-0.092 0.028-0.198 0.029-0.307v-0.001c-0.002-0.137-0.029-0.267-0.078-0.386l0.003 0.007c-0.063-0.163-0.145-0.248-0.245-0.269-0.017-0.004-0.036-0.007-0.056-0.007l-0.001-0zM6.953 14.675c-0.165 0.020-0.304 0.121-0.375 0.261l-0.001 0.003c-0.157 0.217-0.25 0.489-0.25 0.783 0 0.006 0 0.012 0 0.018v-0.001c0.002 0.137 0.029 0.267 0.078 0.386l-0.003-0.007c0.061 0.163 0.146 0.248 0.245 0.269 0.011 0.001 0.024 0.002 0.036 0.002 0.12 0 0.227-0.052 0.301-0.134l0-0c0.163-0.161 0.276-0.373 0.315-0.609l0.001-0.006c0.018-0.089 0.029-0.191 0.029-0.295 0-0.005-0-0.009-0-0.014v0.001c-0.002-0.137-0.029-0.267-0.078-0.386l0.003 0.007c-0.063-0.163-0.145-0.248-0.245-0.269-0.017-0.004-0.036-0.007-0.056-0.007l-0.001-0zM26.003 14.661c0.014-0.001 0.030-0.002 0.047-0.002 0.127 0 0.246 0.034 0.348 0.093l-0.003-0.002c0.071 0.060 0.116 0.149 0.116 0.248 0 0.013-0.001 0.025-0.002 0.037l0-0.002q0 0.293-0.506 0.3v-0.675zM23.469 14.12v2.834h1.552v-0.605h-0.785v-0.521h0.677v-0.586h-0.676v-0.519h0.779v-0.603zM29.468 14.115v2.834h1.552v-0.605h-0.789v-0.518h0.676v-0.586h-0.676v-0.521h0.784v-0.605zM25.241 14.115v2.834h0.765v-1.29h0.015l0.618 1.289h0.807l-0.612-1.275c0.271-0.118 0.459-0.382 0.463-0.69v-0.001c0-0.007 0-0.016 0-0.024 0-0.25-0.123-0.472-0.311-0.607l-0.002-0.002c-0.219-0.147-0.488-0.235-0.778-0.235-0.026 0-0.051 0.001-0.077 0.002l0.004-0zM20.249 14.115l-0.363 2.834h0.725l0.195-1.951 0.496 1.951h0.516l0.469-1.946 0.207 1.946h0.755l-0.382-2.834h-0.988l-0.149 0.636c-0.038 0.163-0.075 0.33-0.108 0.501l-0.083 0.441c-0.079-0.441-0.188-0.965-0.325-1.577zM16.785 14.115l-0.363 2.834h0.725l0.195-1.951 0.494 1.951h0.516l0.474-1.946 0.205 1.946h0.755l-0.381-2.834h-0.99l-0.15 0.636c-0.038 0.163-0.075 0.33-0.109 0.501l-0.084 0.44q-0.145-0.792-0.323-1.577zM28.798 14.040c-0.017-0.001-0.038-0.001-0.058-0.001-0.778 0-1.409 0.631-1.409 1.409 0 0.017 0 0.034 0.001 0.051l-0-0.002c-0.001 0.021-0.002 0.045-0.002 0.069 0 0.4 0.157 0.764 0.413 1.033l-0.001-0.001c0.262 0.261 0.622 0.422 1.021 0.422 0.020 0 0.040-0 0.060-0.001l-0.003 0c0.155-0.002 0.304-0.025 0.444-0.068l-0.011 0.003v-0.676c-0.113 0.037-0.243 0.060-0.377 0.064l-0.002 0c-0.007 0-0.016 0-0.025 0-0.199 0-0.378-0.085-0.503-0.221l-0-0c-0.125-0.164-0.2-0.371-0.2-0.597 0-0.222 0.073-0.427 0.197-0.592l-0.002 0.003c0.115-0.139 0.288-0.227 0.481-0.227 0.006 0 0.011 0 0.017 0l-0.001-0c0.148 0.001 0.291 0.023 0.426 0.064l-0.011-0.003v-0.672c-0.132-0.036-0.283-0.056-0.439-0.056-0.005 0-0.010 0-0.016 0h0.001zM13.26 14.040c-0.017-0.001-0.038-0.001-0.058-0.001-0.778 0-1.409 0.631-1.409 1.409 0 0.017 0 0.034 0.001 0.051l-0-0.002c-0.001 0.021-0.002 0.045-0.002 0.069 0 0.4 0.157 0.764 0.413 1.033l-0.001-0.001c0.261 0.261 0.622 0.422 1.020 0.422 0.020 0 0.040-0 0.061-0.001l-0.003 0c0.155-0.002 0.304-0.025 0.444-0.068l-0.011 0.003v-0.676c-0.113 0.037-0.243 0.060-0.377 0.064l-0.002 0c-0.007 0-0.016 0-0.025 0-0.199 0-0.378-0.085-0.503-0.221l-0-0c-0.125-0.164-0.2-0.371-0.2-0.597 0-0.222 0.073-0.427 0.197-0.592l-0.002 0.003c0.115-0.139 0.288-0.227 0.481-0.227 0.006 0 0.011 0 0.017 0l-0.001-0c0.149 0.001 0.291 0.023 0.426 0.064l-0.011-0.003v-0.672c-0.132-0.036-0.283-0.056-0.44-0.056-0.005 0-0.010 0-0.016 0h0.001zM15.095 14.037c-0.017-0.001-0.036-0.001-0.056-0.001-0.335 0-0.636 0.147-0.842 0.381l-0.001 0.001c-0.202 0.266-0.324 0.602-0.324 0.967 0 0.037 0.001 0.073 0.004 0.109l-0-0.005c-0.002 0.035-0.004 0.075-0.004 0.116 0 0.382 0.121 0.735 0.328 1.023l-0.004-0.005c0.208 0.244 0.516 0.398 0.86 0.398 0.025 0 0.050-0.001 0.075-0.002l-0.003 0c0.018 0.001 0.040 0.002 0.061 0.002 0.341 0 0.645-0.154 0.849-0.395l0.001-0.002c0.202-0.278 0.324-0.625 0.324-1.002 0-0.036-0.001-0.073-0.003-0.109l0 0.005c0.002-0.032 0.003-0.069 0.003-0.106 0-0.374-0.123-0.72-0.332-0.998l0.003 0.004c-0.216-0.236-0.525-0.383-0.868-0.383-0.025 0-0.050 0.001-0.074 0.002l0.003-0zM9.541 13.979c0.080 0 0.158 0.009 0.232 0.026l-0.007-0.001c0.288 0.055 0.526 0.234 0.661 0.478l0.002 0.005c0.127 0.221 0.201 0.485 0.201 0.768 0 0.018-0 0.036-0.001 0.054l0-0.003c0 0.006 0 0.013 0 0.021 0 0.427-0.121 0.827-0.33 1.166l0.005-0.010c-0.182 0.366-0.549 0.616-0.976 0.626l-0.001 0c-0.081-0.002-0.158-0.011-0.233-0.029l0.007 0.001c-0.288-0.055-0.527-0.233-0.662-0.476l-0.002-0.005c-0.126-0.225-0.201-0.493-0.201-0.779 0-0.016 0-0.032 0.001-0.048l-0 0.002c-0-0.006-0-0.013-0-0.021 0-0.426 0.121-0.824 0.331-1.162l-0.005 0.009c0.183-0.365 0.549-0.613 0.975-0.623l0.001-0zM6.933 13.979c0.080 0 0.158 0.009 0.232 0.026l-0.007-0.001c0.288 0.057 0.525 0.235 0.661 0.478l0.003 0.005c0.127 0.221 0.202 0.487 0.202 0.77 0 0.017-0 0.034-0.001 0.051l0-0.002c0 0.005 0 0.012 0 0.018 0 0.428-0.121 0.829-0.331 1.168l0.005-0.010c-0.182 0.366-0.549 0.616-0.976 0.626l-0.001 0c-0.081-0.002-0.158-0.011-0.233-0.029l0.007 0.001c-0.288-0.055-0.527-0.233-0.662-0.476l-0.003-0.005c-0.125-0.224-0.199-0.491-0.199-0.775 0-0.018 0-0.035 0.001-0.053l-0 0.003c-0-0.008-0-0.016-0-0.025 0-0.424 0.12-0.821 0.329-1.157l-0.005 0.009c0.183-0.365 0.549-0.613 0.975-0.623l0.001-0zM5.315 13.528h0.038c0.086 0.002 0.164 0.033 0.225 0.084l-0.001-0c0.073 0.056 0.122 0.14 0.129 0.237l0 0.001c0.001 0.009 0.001 0.019 0.001 0.030 0 0.062-0.016 0.121-0.043 0.172l0.001-0.002c-0.2 0.438-0.343 0.945-0.401 1.478l-0.002 0.022c-0.077 0.41-0.121 0.883-0.121 1.365 0 0.078 0.001 0.155 0.003 0.232l-0-0.011c0.002 0.016 0.003 0.035 0.003 0.054 0 0.080-0.019 0.156-0.053 0.222l0.001-0.003c-0.041 0.084-0.123 0.143-0.219 0.15l-0.001 0c-0.001 0-0.001 0-0.002 0-0.132 0-0.249-0.060-0.327-0.154l-0.001-0.001c-0.433-0.488-0.753-1.085-0.914-1.744l-0.006-0.028q-0.406 0.798-0.598 1.198c-0.245 0.471-0.454 0.711-0.628 0.723-0.113 0.009-0.208-0.086-0.292-0.285-0.295-0.901-0.535-1.97-0.676-3.069l-0.009-0.090c-0.003-0.017-0.005-0.037-0.005-0.058 0-0.083 0.027-0.159 0.073-0.221l-0.001 0.001c0.061-0.078 0.156-0.128 0.262-0.128 0 0 0.001 0 0.001 0h-0c0.018-0.004 0.038-0.006 0.059-0.006 0.167 0 0.302 0.135 0.302 0.302 0 0.001 0 0.001 0 0.002v-0c0.129 0.87 0.272 1.607 0.421 2.21l0.91-1.736c0.052-0.132 0.169-0.228 0.311-0.249l0.002-0c0.183-0.013 0.297 0.104 0.342 0.35 0.097 0.541 0.233 1.018 0.412 1.474l-0.018-0.052c0.043-0.837 0.242-1.618 0.567-2.328l-0.016 0.040c0.050-0.105 0.152-0.178 0.272-0.184l0.001-0zM1.924 12.971c0 0 0 0 0 0-0.521 0-0.944 0.423-0.944 0.944 0 0.002 0 0.004 0 0.005v-0 3.16c0 0 0 0.001 0 0.001 0 0.523 0.424 0.947 0.947 0.947 0 0 0.001 0 0.001 0h3.924l1.791 1-0.408-1h2.97c0 0 0.001 0 0.001 0 0.523 0 0.948-0.424 0.948-0.948 0-0 0-0.001 0-0.001v0-3.16c0-0 0-0.001 0-0.001 0-0.523-0.424-0.948-0.948-0.948-0 0-0.001 0-0.001 0h0z"></path>
</svg>