<svg xmlns="http://www.w3.org/2000/svg" viewBox="0 0 1064 208" class="_1ua47a02"><path d="m1058.44 56.71-3.82 9.09-3.79-9.09h-2.69v12.46h2.21v-8.39l3.69 8.39h1.21l3.65-8.36v8.36h2.26V56.71h-2.72ZM1036.16 58.66h3.77v10.51h2.25V58.66h3.77v-1.95h-9.79v1.95ZM387.93 56.01h-23.05c-.47 0-.88.32-.98.78-1.56 7.28-13.42 62.93-14.08 67.6-.05.35-.27.35-.32 0-.74-4.67-13.57-60.4-15.23-67.62a.995.995 0 0 0-.97-.77h-21.51c-.47 0-.87.31-.97.77-1.67 7.21-14.54 62.95-15.26 67.62-.07.43-.32.43-.39 0-.68-4.67-12.5-60.31-14.05-67.6-.1-.46-.5-.79-.98-.79h-23.05a1 1 0 0 0-.97 1.26l25.07 93.87c.12.44.51.74.97.74h24.24c.46 0 .86-.31.97-.76 1.52-6.41 12.18-51.33 14.59-61.84.12-.52.85-.52.97 0 2.44 10.5 13.23 55.44 14.76 61.84.11.45.51.76.97.76h24.18c.45 0 .85-.3.97-.74l25.07-93.87c.17-.63-.31-1.26-.97-1.26l.02.01ZM462.52 60.19c-5.23-2.79-11.45-4.18-18.66-4.18h-37.27c-.55 0-1 .45-1 1v93.87c0 .55.45 1 1 1h20.71c.55 0 1-.45 1-1v-28.92h14.91c7.33 0 13.66-1.37 18.98-4.12 5.32-2.74 9.42-6.56 12.29-11.45 2.87-4.89 4.31-10.64 4.31-17.24 0-6.6-1.41-12.33-4.22-17.31-2.81-4.98-6.83-8.86-12.06-11.65h.01Zm-7.11 36.74c-1.2 2.23-3 3.97-5.41 5.21-2.4 1.24-5.38 1.87-8.94 1.87h-12.75v-29.6H441c3.56 0 6.55.6 8.97 1.8 2.42 1.2 4.23 2.91 5.44 5.12 1.2 2.21 1.8 4.82 1.8 7.82s-.6 5.56-1.8 7.79v-.01ZM583.93 67.87c-3.73-3.76-7.93-6.56-12.6-8.4a39.423 39.423 0 0 0-14.58-2.76c-8.02 0-15.06 2.06-21.12 6.18-6.07 4.12-10.79 9.77-14.16 16.96-3.38 7.19-5.06 15.43-5.06 24.7s1.72 17.49 5.15 24.62c3.43 7.14 8.29 12.72 14.58 16.76 6.29 4.03 13.74 6.05 22.36 6.05 6.2 0 11.69-1 16.47-3.01 4.78-2 8.74-4.65 11.9-7.95 2.88-3.01 5.04-6.24 6.48-9.7.22-.54-.08-1.15-.63-1.33l-8.74-2.78c-.49-.15-1 .09-1.21.55-1.09 2.38-2.63 4.59-4.63 6.63-2.22 2.28-4.97 4.11-8.23 5.48-3.27 1.37-7.04 2.06-11.32 2.06-6.31 0-11.79-1.49-16.43-4.49-4.64-2.99-8.22-7.19-10.75-12.6-2.36-5.05-3.6-10.89-3.76-17.5h67.32c.55 0 1-.45 1-1v-3.86c0-7.79-1.07-14.57-3.21-20.34-2.14-5.76-5.08-10.53-8.81-14.29l-.02.02Zm-52.65 15.68c2.44-5.05 5.85-9.11 10.21-12.19 4.36-3.07 9.46-4.61 15.28-4.61 5.82 0 10.9 1.51 15.07 4.53 4.17 3.02 7.38 7.14 9.63 12.35 1.83 4.24 2.91 8.94 3.25 14.08h-57.03c.29-5.09 1.48-9.81 3.59-14.16ZM672.03 60.62c-4.69-2.61-10.17-3.91-16.43-3.91-6.97 0-13.16 1.78-18.57 5.35-4.32 2.85-7.71 7.14-10.19 12.83l-.06-15.95c0-.55-.45-1-1-1h-8.79c-.55 0-1 .45-1 1V149c0 .55.45 1 1 1h9.2c.55 0 1-.45 1-1V92.61c0-5.27 1.11-9.84 3.33-13.71 2.22-3.87 5.26-6.83 9.1-8.89 3.84-2.06 8.18-3.09 13.01-3.09 7.08 0 12.73 2.18 16.96 6.55 4.23 4.36 6.34 10.31 6.34 17.83v57.71c0 .55.45 1 1 1h9.12c.55 0 1-.45 1-1V90.48c0-7.3-1.33-13.45-3.99-18.45-2.66-4.99-6.34-8.8-11.03-11.4v-.01ZM783.6 57.94h-8.87c-.55 0-1 .45-1 1v16.7h-1.15c-1.21-2.8-2.95-5.67-5.23-8.6-2.28-2.94-5.28-5.39-9.02-7.37-3.73-1.98-8.4-2.96-14-2.96-7.52 0-14.14 1.98-19.85 5.93-5.71 3.95-10.16 9.46-13.34 16.51-3.18 7.05-4.78 15.28-4.78 24.66s1.62 17.46 4.86 24.21 7.7 11.94 13.38 15.56c5.68 3.62 12.17 5.43 19.47 5.43 5.49 0 10.1-.89 13.83-2.68 3.73-1.78 6.77-4.06 9.1-6.83 2.33-2.77 4.1-5.59 5.31-8.44h1.07v20.67c0 8.45-2.47 14.7-7.41 18.73-4.94 4.04-11.47 6.05-19.6 6.05-5.11 0-9.42-.7-12.93-2.1-3.51-1.4-6.38-3.21-8.61-5.43-1.95-1.95-3.55-3.95-4.8-6.01-.29-.47-.9-.63-1.37-.35l-7.55 4.58c-.45.28-.62.86-.37 1.33 1.77 3.28 4.15 6.21 7.14 8.8 3.24 2.8 7.23 5.01 11.98 6.63s10.25 2.43 16.51 2.43c7.36 0 13.92-1.22 19.68-3.66 5.76-2.44 10.29-6.19 13.59-11.24 3.29-5.05 4.94-11.47 4.94-19.27V58.94c0-.55-.45-1-1-1h.02Zm-13.32 64.6c-2.2 5.3-5.37 9.36-9.51 12.19-4.15 2.83-9.15 4.24-15.03 4.24-5.88 0-11.06-1.49-15.23-4.49-4.17-2.99-7.36-7.15-9.55-12.47-2.2-5.32-3.29-11.47-3.29-18.45 0-6.98 1.08-13.06 3.25-18.61 2.17-5.54 5.34-9.95 9.51-13.22 4.17-3.27 9.28-4.9 15.32-4.9 6.04 0 11.03 1.58 15.15 4.73 4.12 3.16 7.26 7.49 9.43 13.01s3.25 11.84 3.25 18.98c0 7.14-1.1 13.68-3.29 18.98l-.01.01ZM823.62 57.94h-9.2a1 1 0 0 0-1 1V149a1 1 0 0 0 1 1h9.2a1 1 0 0 0 1-1V58.94a1 1 0 0 0-1-1ZM819.02 44.89a6.33 6.33 0 1 0 0-12.66 6.33 6.33 0 0 0 0 12.66ZM910.3 60.62c-4.69-2.61-10.17-3.91-16.43-3.91-6.97 0-13.16 1.78-18.57 5.35-4.32 2.85-7.71 7.14-10.19 12.83l-.06-15.95c0-.55-.45-1-1-1h-8.79c-.55 0-1 .45-1 1V149c0 .55.45 1 1 1h9.2c.55 0 1-.45 1-1V92.61c0-5.27 1.11-9.84 3.33-13.71 2.22-3.87 5.26-6.83 9.1-8.89 3.84-2.06 8.18-3.09 13.01-3.09 7.08 0 12.73 2.18 16.96 6.55 4.23 4.36 6.34 10.31 6.34 17.83v57.71c0 .55.45 1 1 1h9.12c.55 0 1-.45 1-1V90.48c0-7.3-1.33-13.45-3.99-18.45-2.66-4.99-6.34-8.8-11.03-11.4v-.01ZM1012.78 67.87c-3.73-3.76-7.93-6.56-12.6-8.4a39.423 39.423 0 0 0-14.58-2.76c-8.02 0-15.06 2.06-21.12 6.18-6.07 4.12-10.79 9.77-14.16 16.96-3.38 7.19-5.06 15.43-5.06 24.7s1.72 17.49 5.15 24.62c3.43 7.14 8.29 12.72 14.58 16.76 6.29 4.03 13.74 6.05 22.36 6.05 6.2 0 11.69-1 16.47-3.01 4.78-2 8.74-4.65 11.9-7.95 2.88-3.01 5.04-6.24 6.48-9.7.22-.54-.08-1.15-.63-1.33l-8.74-2.78c-.49-.15-1 .09-1.21.55-1.09 2.38-2.63 4.59-4.63 6.63-2.22 2.28-4.97 4.11-8.23 5.48-3.27 1.37-7.04 2.06-11.32 2.06-6.31 0-11.79-1.49-16.43-4.49-4.64-2.99-8.22-7.19-10.75-12.6-2.36-5.05-3.6-10.89-3.76-17.5h67.32c.55 0 1-.45 1-1v-3.86c0-7.79-1.07-14.57-3.21-20.34-2.14-5.76-5.08-10.53-8.81-14.29l-.02.02Zm-52.66 15.68c2.44-5.05 5.85-9.11 10.21-12.19 4.36-3.07 9.46-4.61 15.28-4.61 5.82 0 10.9 1.51 15.07 4.53 4.17 3.02 7.38 7.14 9.63 12.35 1.83 4.24 2.91 8.94 3.25 14.08h-57.03c.29-5.09 1.48-9.81 3.59-14.16Z"/><path d="M133 208c1.66 0 3-1.34 3-3v-42.51c0-1.59-.63-3.12-1.76-4.24l-12.49-12.49a5.987 5.987 0 0 0-4.24-1.76H90.48c-1.59 0-3.12.63-4.24 1.76l-12.49 12.49a5.987 5.987 0 0 0-1.76 4.24V205c0 1.66 1.34 3 3 3H133ZM158.24 73.76l-12.49 12.49a5.987 5.987 0 0 0-1.76 4.24v27.03c0 1.59.63 3.12 1.76 4.24l12.49 12.49a5.987 5.987 0 0 0 4.24 1.76h42.51c1.66 0 3-1.34 3-3v-58c0-1.66-1.34-3-3-3h-42.51c-1.59 0-3.12.63-4.24 1.76v-.01ZM75 0c-1.66 0-3 1.34-3 3v42.51c0 1.59.63 3.12 1.76 4.24l12.49 12.49A5.987 5.987 0 0 0 90.49 64h27.03c1.59 0 3.12-.63 4.24-1.76l12.49-12.49a5.987 5.987 0 0 0 1.76-4.24V3c0-1.66-1.34-3-3-3H75ZM205 144h-42.51c-1.59 0-3.12.63-4.24 1.76l-12.49 12.49a5.987 5.987 0 0 0-1.76 4.24V205c0 1.66 1.34 3 3 3h58c1.66 0 3-1.34 3-3v-58c0-1.66-1.34-3-3-3ZM61 0H18.49c-1.6 0-3.12.63-4.25 1.76L1.76 14.24A5.993 5.993 0 0 0 0 18.49V61c0 1.66 1.34 3 3 3h42.51c1.59 0 3.12-.63 4.24-1.76l12.49-12.49A5.987 5.987 0 0 0 64 45.51V3c0-1.66-1.34-3-3-3ZM144 3v42.51c0 1.59.63 3.12 1.76 4.24l12.49 12.49a5.987 5.987 0 0 0 4.24 1.76H205c1.66 0 3-1.34 3-3V3c0-1.66-1.34-3-3-3h-58c-1.66 0-3 1.34-3 3ZM104 120c-8.84 0-16-7.16-16-16s7.17-16 16-16 16 7.16 16 16-7.17 16-16 16ZM0 147v58c0 1.66 1.34 3 3 3h58c1.66 0 3-1.34 3-3v-42.51c0-1.59-.63-3.12-1.76-4.24l-12.49-12.49a5.987 5.987 0 0 0-4.24-1.76H3c-1.66 0-3 1.34-3 3ZM62.24 86.24 49.75 73.75a5.987 5.987 0 0 0-4.24-1.76H3C1.34 72 0 73.34 0 75v58c0 1.66 1.34 3 3 3h43.2c1.59 0 3.12-.63 4.24-1.76l11.8-11.79a5.987 5.987 0 0 0 1.76-4.24V90.49c0-1.59-.63-3.12-1.76-4.24v-.01Z"/></svg>