<svg xmlns="http://www.w3.org/2000/svg" version="1.1" xmlns:xlink="http://www.w3.org/1999/xlink" viewBox="0 0 200 200"><rect width="200" height="200" fill="url('#gradient')"></rect><defs><linearGradient id="gradient" gradientTransform="rotate(45 0.5 0.5)"><stop offset="0%" stop-color="#ffb162"></stop><stop offset="100%" stop-color="#a35139"></stop></linearGradient></defs><g><g fill="00192f" transform="matrix(6.20397172669135,0,0,6.20397172669135,10.194969604299033,144.1096146715807)" stroke="#2c3b4d" stroke-width="0.5"><path d="M3.65-14.22L6.28-8.05L8.90-14.22L12.60-14.22L8.02-5.11L8.02 0L4.54 0L4.54-5.11L-0.03-14.22L3.65-14.22ZM13.63-14.22L18.13-14.22L21.31-4.33L24.47-14.22L28.98-14.22L28.98 0L25.55 0L25.55-3.32L25.88-10.12L22.44 0L20.18 0L16.73-10.13L17.06-3.32L17.06 0L13.63 0L13.63-14.22Z"></path></g></g></svg>